<svg version="1.1" id="Layer_1" xmlns="http://www.w3.org/2000/svg" xmlns:xlink="http://www.w3.org/1999/xlink" x="0px" y="0px"
	 viewBox="0 0 100 100" style="enable-background:new 0 0 100 100;" xml:space="preserve">
<style type="text/css">
	.st0{fill:url(#SVGID_1_);}
	.st1{fill:#FFFFFF;}
</style>
<linearGradient id="SVGID_1_" gradientUnits="userSpaceOnUse" x1="-365.8889" y1="345.5312" x2="-364.8889" y2="344.5312" gradientTransform="matrix(90 0 0 -90 32935 31102.8027)">
	<stop  offset="0" style="stop-color:#A855F7"/>
	<stop  offset="1" style="stop-color:#EC4899"/>
</linearGradient>
<path class="st0" d="M23,5h54c9.9,0,18,8.1,18,18v54c0,9.9-8.1,18-18,18H23c-9.9,0-18-8.1-18-18V23C5,13.1,13.1,5,23,5z"/>
<path class="st1" d="M50,75.5c-0.9,0-1.8-0.6-2.1-1.5l-0.7-2.1c-3.1-9.7-3.8-11.7-5.5-13.6c-1.9-1.8-3.9-2.4-13.6-5.5L26,52.1
	c-0.9-0.3-1.5-1.1-1.5-2.1c0-0.9,0.6-1.8,1.5-2.1l2.1-0.7c9.7-3.1,11.7-3.8,13.6-5.5c1.8-1.9,2.4-3.9,5.5-13.6l0.7-2.1
	c0.3-0.9,1.1-1.5,2.1-1.5c0.9,0,1.8,0.6,2.1,1.5l0.7,2.1c3.1,9.7,3.8,11.7,5.5,13.6c1.9,1.8,3.9,2.4,13.6,5.5l2.1,0.7
	c0.9,0.3,1.5,1.1,1.5,2.1c0,0.9-0.6,1.8-1.5,2.1l-2.1,0.7c-9.7,3.1-11.7,3.8-13.6,5.5c-1.8,1.9-2.4,3.9-5.5,13.6L52.1,74
	C51.8,74.9,50.9,75.5,50,75.5z M33.9,50c6.6,2.1,8.6,3,10.9,5.1c0,0,0.1,0.1,0.1,0.1c2.1,2.3,3,4.3,5.1,10.9c2.1-6.6,3-8.6,5.1-10.9
	c0,0,0.1-0.1,0.1-0.1c2.3-2.1,4.3-3,10.9-5.1c-6.6-2.1-8.6-3-10.9-5.1c0,0-0.1-0.1-0.1-0.1c-2.1-2.3-3-4.3-5.1-10.9
	c-2.1,6.6-3,8.6-5.1,10.9c0,0-0.1,0.1-0.1,0.1C42.5,47,40.4,47.9,33.9,50z"/>
<path class="st1" d="M75.5,41.1c-2.1-6.7-2.5-8.1-3.9-9.6c-1.5-1.4-2.8-1.7-9.6-3.9c6.7-2.1,8.1-2.5,9.6-3.9
	c1.4-1.4,1.7-2.8,3.9-9.6c2.1,6.7,2.5,8.1,3.9,9.6c1.5,1.4,2.8,1.7,9.6,3.9c-6.7,2.1-8.1,2.5-9.6,3.9C78,33,77.6,34.4,75.5,41.1z"/>
<path class="st1" d="M22.9,82.3c-1.5-4.7-1.8-5.7-2.7-6.7c-1-0.9-2-1.2-6.7-2.7c4.7-1.5,5.7-1.8,6.7-2.7c0.9-1,1.2-2,2.7-6.7
	c1.5,4.7,1.8,5.7,2.7,6.7c1,0.9,2,1.2,6.7,2.7c-4.7,1.5-5.7,1.8-6.7,2.7C24.6,76.6,24.4,77.6,22.9,82.3z"/>
<path class="st1" d="M28.2,35.8c-0.8-2.7-1-3.2-1.5-3.8c-0.6-0.5-1.1-0.7-3.8-1.5c2.7-0.8,3.2-1,3.8-1.5c0.5-0.6,0.7-1.1,1.5-3.8
	c0.8,2.7,1,3.2,1.5,3.8c0.6,0.5,1.1,0.7,3.8,1.5c-2.7,0.8-3.2,1-3.8,1.5C29.2,32.6,29,33.2,28.2,35.8z"/>
</svg>