
<svg version="1.1" id="Layer_1" xmlns="http://www.w3.org/2000/svg" xmlns:xlink="http://www.w3.org/1999/xlink" x="0px" y="0px"
	 viewBox="0 0 100 100" style="enable-background:new 0 0 100 100;" xml:space="preserve">
<style type="text/css">
	.st0{fill:url(#SVGID_1_);}
	.st1{fill:none;stroke:#FFFFFF;stroke-width:6;stroke-linejoin:round;stroke-miterlimit:10;}
	.st2{fill:#FFFFFF;}
</style>
<linearGradient id="SVGID_1_" gradientUnits="userSpaceOnUse" x1="-365.8889" y1="345.5312" x2="-364.8889" y2="344.5312" gradientTransform="matrix(90 0 0 -90 32935 31102.8027)">
	<stop  offset="0" style="stop-color:#A855F7"/>
	<stop  offset="1" style="stop-color:#EC4899"/>
</linearGradient>
<path class="st0" d="M23,5h54c9.9,0,18,8.1,18,18v54c0,9.9-8.1,18-18,18H23c-9.9,0-18-8.1-18-18V23C5,13.1,13.1,5,23,5z"/>
<path class="st1" d="M50,82c-5.1-16-6-19.3-9.3-22.8C37.3,56,34,55.1,18,50c16-5.1,19.3-6,22.8-9.3C44,37.3,44.9,34,50,18
	c5.1,16,6,19.3,9.3,22.8C62.7,44,66,44.9,82,50c-16,5.1-19.3,6-22.8,9.3C56,62.7,55.1,66,50,82z"/>
<path class="st2" d="M75.5,41.8c-2.3-7-2.7-8.5-4.1-10c-1.5-1.4-3-1.8-10-4.1c7-2.3,8.5-2.7,10-4.1c1.4-1.5,1.8-3,4.1-10
	c2.3,7,2.7,8.5,4.1,10c1.5,1.4,3,1.8,10,4.1c-7,2.3-8.5,2.7-10,4.1C78.1,33.3,77.7,34.7,75.5,41.8z"/>
<path class="st2" d="M28.2,82.7C26.7,78,26.4,77,25.5,76c-1-0.9-2-1.2-6.7-2.7c4.7-1.5,5.7-1.8,6.7-2.7c0.9-1,1.2-2,2.7-6.7
	c1.5,4.7,1.8,5.7,2.7,6.7c1,0.9,2,1.2,6.7,2.7c-4.7,1.5-5.7,1.8-6.7,2.7C30,77,29.7,78,28.2,82.7z"/>
<path class="st2" d="M18.8,30.5c-0.8-2.7-1-3.2-1.5-3.8c-0.6-0.5-1.1-0.7-3.8-1.5c2.7-0.8,3.2-1,3.8-1.5c0.5-0.6,0.7-1.1,1.5-3.8
	c0.8,2.7,1,3.2,1.5,3.8c0.6,0.5,1.1,0.7,3.8,1.5c-2.7,0.8-3.2,1-3.8,1.5C19.8,27.3,19.7,27.9,18.8,30.5z"/>
</svg>