<?xml version="1.0" encoding="utf-8"?>
<!-- Generator: Adobe Illustrator 23.0.1, SVG Export Plug-In . SVG Version: 6.00 Build 0)  -->
<svg version="1.1" id="Layer_1" xmlns="http://www.w3.org/2000/svg" xmlns:xlink="http://www.w3.org/1999/xlink" x="0px" y="0px"
	 viewBox="0 0 720 370" style="enable-background:new 0 0 720 370;" xml:space="preserve">
<style type="text/css">
	.st0{fill:#474747;}
	.st1{fill:#756E6C;}
	.st2{fill:#C869F4;}
	.st3{fill:#F4A9FF;}
</style>
<g>
	<path class="st0" d="M8.3,237.1c1.2,7.3,5.8,19.9,15.5,16.8c5.7,12.9,17.3,14.8,29.2,8.8c8,3.7,11.8,4.1,18.7-1.7
		c5.6,8.5,12.8,13.2,22.7,16.5c15.7,5.1,63.5,6.3,80.7,6.2c21-0.1,41.9,0.2,62.9,0c18.4-0.1,42.3,4,53.7,20.9
		c11.4,17.9-0.7,38.8-16.8,48.7c-11.7,7.5-25.1,9.3-38.6,6.1c-9-2-17.8-6.4-23-14.3c-10.7-16.4,9.7-33,25-34
		c6.8-0.4,15.7,1.1,19.9,7.3c1.6,2.3,0.6,6.5-2,7.6c-2.6,1.6-8.2-0.2-9.6,1.5c0.3,1,0.1,0.6,1,1.3c5.5,0.4,9.6-0.8,13.9-4.3
		c1.4-1.2,2.9-3.4,2.9-5.2c-0.1-8.6-10-11.2-16.7-11.4c-13.1-0.3-25.3,5.7-34.8,14.3c-3.2,3-5.1,5.7-6.9,9.7
		c-3.3,7.4-1.4,15.1,4.3,20.7c8.7,8.5,21.8,11.8,33.7,11.8c16.4,0.3,32.2-7.7,43.8-19c7.8-7.6,14.1-18.6,14.1-29.7
		c0-11.9-6.9-19.1-16.2-25.1c-30.5-16.7-68.7-11.1-102.3-11.1c-29.4,0-67.8-2.6-77.5-4.1c-64.1-9.6-20.5-82.6-9.9-118.4
		c2.8-9.6,6.9-19,8-28.9c0.6-4.8,0.3-9.7-0.7-14.4c-2.3-10.8-9.7-23.6-4.4-34.5c0.8-1.6,2.7-3.6,3.8-5.1c3.2-4.3,1.3-10.9,0.2-15.8
		c1.5-2.3,3.3-4.9,4.7-7.2c5.4,0.8,9.5,0.8,9-5.7c1.7-1.3,7.9-1.4,10.4-1.6c-6.6,7.2-8.4,12.3,4.2,11.4c6-0.5,10.3-1.9,15.9-4.1
		c0.5,2.3,2,7.8,1.6,9.8c-1.3,5.9-4.3,12-6.8,17.6c-2.2,5.2-4.4,10.5-6.3,15.8c-7,19.1-13.1,43.3-14.7,63.5
		c-0.4,4.5,9.9,5.4,13.4,4.7c0-2.8-0.1-5.7,4.3-5.3c0.6,0.1,2.2,0.7,2.6,1.2c-0.3,1.3-0.7,2.4-1.1,3.7c6.9,9.7,15.4,11.3,25.9,4.9
		c5.2-3.2,0.9-10.4,10-9c5.6,0.8-0.1,6.3,6.3,7c7.9,0.9,10.4-3.5,11.1-10.9c3-28.9-6.2-60.1-18.5-86c-3.9-8.2-3.6-10.1-1.8-18.5
		c11.8,2,35.1-2.7,12.5-13.5c10.8-2.6,10.8-2.9,21.7-2.9c-2,1.3-4.7,2.5-6.9,3.6l20-4.8c0.6,11.2,0.7,11.1-3.5,21.5
		c2.7,6.6,8.5,20.5,9.7,27.2c-13,31.5-21.5,62.5-20.3,96.9c5.5-7,10.3-8.1,18.8-4.6c11.8,4.8,28.1,6,36.8-5c0.3-0.4,0.5-0.7,0.8-1.1
		c7.1,6.7,13,5.1,19-2c9.4-11,15.4-18.9,31.1-18.8c-12-16.1-27.1-31.5-40.9-46.2c-3-3.3-6.1-6.5-9.2-9.6c-5.4-5.4-7.4-7.2-11.5-13.8
		c0.1-6.8,2.5-22.8,4.1-29.1c-4.2-3.8-6.7-6-7-12.1c-0.1-1.7-0.1-3.3-0.1-5c4.6,0,12.2,0.1,16.4-0.3c-11.1-2.1-27.2-3.9-34.3-13.7
		c-2.3-3.1-3.8-9.9,2.4-7.8c2.6,0.9,2.7,3.1,3.3,5.5l0.4,0c1.3-2,0.8-5.7-1.5-6.8c-1.8-0.9-3.2-0.9-5.1-0.7
		c-7.7,3.8-2.1,10.3,1.8,14.8l-0.5,0c-5.7,0.6-12.6,6.1-17.9,8.1c-5.5,2-12,1.1-17.7,1.9c-2.6,0.4-11.4,3.4-13.1,2.9
		c-8.1-2.5-16.5-5-25-6.3l-0.3-0.3c-2.3-2.5-6.5-8.1-6.7-11.6c-0.1-2.3,2.7-3.5,4.6-3.2c3.7,0.3,3.8,2.7,4.4,5.7l0.6,0
		c4.5-6.7-8.1-10.7-11.2-5.1c-2.4,4.3,3.6,11.3,6.1,14.7c-7,3.6-14,7.1-21,10.8c-1.1,0.6-2.4,1.2-3.6,1.5c-5.8,0.9-11.3,1-17.1,2.4
		c-10-6.5-16-6.5-27.4-9.4c-2.7-2.9-8.7-9.2-8.6-12.9c0.1-4.6,8.2-4.9,7.7,2c0.8,0.3,0.4,0.3,1.2,0.1c1.6-1.8-0.8-6-2.5-6.8
		c-4.9-2.5-10.6,1.8-8.2,7.2c1.8,4.1,4.7,7.8,7.7,10.8c-10.1,0.6-18.9,4.5-27.3,9.9c-2.7,1.7-10,4.1-9.8,8
		c1.8,3.4,11.2,2.3,14.6,1.9c2.4,3.5,3.2,4.2,7.2,5.9c-1.4,9.2-1.9,11.5,3.7,18.9c7.4,9.8,0,25.1-2,35.5
		c-1.9,10.3-2.1,20.5-5.1,30.5C55.2,170.9,27,218.4,8.3,237.1z M247.3,40.4c-3.7,3.8-6.7,7.1-10.6,10.9l-3.5-2
		c-3.5-2.1-7.4-4.6-10.9-6.8c-0.3-3.6-0.6-7-1.2-10.6c5.9-0.5,11.7-0.9,17.6-1.3c1.4-0.2,6.4-0.2,8.1-0.2
		C246.6,33.3,246.8,37.5,247.3,40.4z M251.5,80.1l-0.3,0.6c-4.2,3.3-17.2,4.6-22.8,4.5c-0.6,0-0.5,0-1.1-0.3l-0.1-1.1
		c0.9-2,0.9-1.1,3.6-0.9c6.7,0.7,13.4-1.2,19.1-4.4l0.3,0C251.1,79.2,251,79.2,251.5,80.1z M249.5,75.8c-1.8,5.3-17.9,5.4-21.4,5
		l-0.5-3.9c7.5,1.7,14.8,0.7,21.4-3.3C249.5,74.1,249.6,75.3,249.5,75.8z M227.3,86.5c8.6,1.3,14.7-0.4,22.6-3.3l2.5-1.5l53.9,62.1
		c-10,1.4-16.2,6.2-22.5,13.8c-8.3,10.2-12.3,15.1-22.4,3.6c-2.9,13.1-19.7,14.2-30.4,11.7c-9.3-2.2-15.2-6.4-23.5,0.9
		c0.1-0.9,0.1-3.3,0.3-4.1C209.6,143,219.2,111.9,227.3,86.5z M222.2,44.7c4.8,3.6,9.6,7.3,14.6,10.8c4.3-4.4,7.4-7.5,11.1-12.4
		l2.3,2.5l3,2c-0.9,4.5-1.7,9-2.3,13.5c-0.2,1.8-0.9,10.4-1.7,11.6c-1.1,0.6-1.6,0.8-2.7,1.2c-6.8,2.3-11.9,2.9-19,1.6
		c-2.4-8.6-4.2-14.6-8-22.8C220.6,49.6,221.3,47.8,222.2,44.7z M142.4,40.8l-4.8,0.2c-0.8,0-0.9,0.1-1.7-0.2
		c0.5-0.9,3.1-2.1,4.2-2.7C141,38.6,141.8,39.9,142.4,40.8z M174.5,35.8c-1.2,1.2-11.2,3.1-13.6,3.6c-5.6,1.1-10.2,1.2-15.8,1.5
		l-3-3.8c4.5-2.5,9.1-4.8,13.8-7.1c4.7,0.6,9.6,2,14.3,2.9C171.6,33.4,174.6,34,174.5,35.8z M173.6,47.6c0.7-2.9,1.8-6.4,2.7-9.3
		l3.6-1.2c3.2-0.5,12.8,3.1,12.2,7.7c-1.2,2-2.9,2.1-5.1,2.6C182.4,48.5,178.1,48.3,173.6,47.6z M172.9,41.5
		c-6.4,5.7-14.8,6-22.5,3.1c-1.5-0.7-3.1-1.6-4.6-2.4c11.7,0.2,15.9-0.2,27.4-3.7l0.4,0.1C173.8,39.5,173.2,40.6,172.9,41.5z
		 M146.9,44.4c9,5,18.7,6.3,25.9-2.1c-1.1,3.1-1.2,3.8-1.9,6.7c-0.4,1.9-1,9.2-1.4,10l0.5,0.9l-0.2,0.5c1.6,4.8,3,9.2,4.9,13.8
		c9.2,22.6,15.1,47.1,16.1,71.5c0.2,4.6,1.2,17.2-5.8,17.3c-1.2,0-2.5,0-3.6-0.5c-0.4-0.9,0.5-8.5,0.5-10.2c0.1-16.1-1.8-32-3.9-48
		c-0.2-1.5-1-8.3-1.5-9.1c0.2,6.4,1,13.8,1.6,20.3c0.7,8.2,1.2,16.5,1.5,24.7c0.3,5.7,0.5,12.1,0.1,17.8c-4.2-2.8-7.2-2.7-11.7-0.4
		c-1.5-19.9-1.1-40-2.5-60c-0.1-1.4-0.1-3-0.4-4.3l-0.1,2.6l-0.5,0.2c0.3,10.3,0.6,20.6,0.7,31c0,6.5-0.2,30.5,2.5,35.4
		c-8.3,8.9-17.4,8.8-25.3-0.3c2.3-6.3,2.8-12.4,4-19c2-10.6,3.5-21.7,5.7-32.1l-0.7-0.9c-3.5,15.4-6.8,30.5-9.2,46.1
		c-4-1.1-4.7-1.7-8.5,0.6c1.1-24.5,9.2-50.2,15.8-73.8c0.4-1.3,1-2.3,0.8-3.7c-1.1,2.3-3.7,11.2-4.7,14.2
		c-5.9,17.5-15.3,49.7-13.6,67.5c-3.8-0.5-5.2-0.7-8.4-2.8c3-26.9,10.9-53.3,20.7-78.4c2.3-6,4.4-12.2,6.4-18.3
		c2.6,1.7,5.2,3.6,7.9,5c0.9-0.5,1.2-0.5,2.2-0.7c-3.6-1-6.9-3.9-9.9-6.1C150.5,53.1,149.5,50.5,146.9,44.4z M130.5,43.1
		c2-0.4,5-0.5,7.2-0.7c1.7-0.2,4.2-0.2,5.9-0.2c1.3,2.5,2.1,4.3,3.1,6.9c-4.3,2-8.2,3.1-12.8,3.8C122.7,54.2,122.5,50,130.5,43.1z
		 M111,45.9c1.4-0.1,2.1-0.3,3.2,0.5c0.7,1.1,0.6,0.6,0.3,1.9c-0.8,1-1.3,1.1-2.5,1.5c-1.4,0.4-2.1,0.7-3.3,0
		C108.2,47.8,109.3,46.6,111,45.9z M59.8,52.1c-3,0.2-5.4,0.2-8.4,0.2c-1.2-0.2-2.3,0-2.6-1.3c1.1-1.9,6.3-3.8,8.4-4.8
		C57.6,46.5,59.4,51.1,59.8,52.1z M99.9,39.5c-0.6,2.2-1.1,3.7-1.9,5.8l-17.1,1.9c-3.4,0.4-6.7,0.9-10,1.4c-3.1-2.4-4.1-3.5-6.3-6.8
		c6.1-3,12.2-4.7,18.8-5.6C86.5,35.7,96.4,38.6,99.9,39.5z M93.6,48.4c0.7-0.2,1.4-0.1,2.2-0.2l0.1,0.4c-1.5,2.4-5,6-7.7,6.9
		c-3.5,1.2-6.3-0.6-9.4-2l-5.1-2.6C79.5,49.7,87.6,49,93.6,48.4z M107.1,45.3c-0.7,2.7-1,3.7-2,6.3c-2.2,4.1-3.7,5.5-8,7.5
		c-3.5,1.6-7,3.4-10.5,5.2c-7.3-4.2-15.2-4.4-21.7-9c-2.8-2-6.9-9.5-3.5-12.7c1.2,0.8,3,3.9,4.3,4.9c5.9,5.1,13.8,9.4,21.4,10.5
		c6.7-2.5,9.3-5.8,12.8-11.6L103,40l5.4,2.2L107.1,45.3z M10.4,237.9c21-20.8,51.5-68.6,57.7-97.5c1.5-7.3,2.3-14.7,3.5-22.1
		c1.1-6.2,2.6-12.3,4.2-18.4c0.5-2,0.7-4.8,1.5-6.6c0.1-0.1,0.1-0.3,0.2-0.4l-0.2-0.3l0.8-0.4l-0.7-0.3c-0.4-0.9-0.3-0.6,0-1.8
		l-0.4-0.3l0.2-0.5c-0.3-4.2-0.8-6.4-2.8-10.1c1.4-0.1,5-0.6,5.8-1.8c-2.5-1.4-7.5,2-9.7-5.3c-1.1-3.7-0.8-7.8-0.7-11.7
		c5.4,1.5,11.1,3,16.4,4.9c4-1.3,11.2-4.3,15-6.3c1.3,6.6,3.6,15.9-5.7,17.3c-0.2,0-0.4,0.1-0.5,0.1l0.6,0.3l0-0.4l0.3,0l0.1,0.5
		l2,0.5c-1.5,3-2.1,5.1-2.6,8.4c-0.3,1.7,0.1,2.4-1.1,3.6l0.5,0.5c0.6,0.9,0.8,1.4,0.4,2.5l0.2,0.6c9.4,28.3,8.6,35.7-2.1,63.7
		l-10.3,26.4c-7.1,18.1-15.9,39.5-15.5,59.1c0.1,5.9,1.5,10.7,3.3,16.3c-6.9,8.1-16.4,4.6-21.1-3.7c-0.2-20.9,21.3-62.2,30.7-82.1
		c3.7-7.8,7.1-15.7,10.3-23.7c2.6-6.7,6.4-16.7,7.2-23.7l-0.6-0.2c-2,12.2-8,24.5-13.2,35.7c-6.8,14.8-44.7,85.1-36.2,97.5
		c0.7,1.1,1.9,2,2.9,2.8c-10.4,4.1-20.5,2.5-24.9-8.8c-0.1-0.3-0.3-0.7-0.4-1c7.3-11.2,18.2-28.4,24.3-40.4l-0.9-0.3
		c-5.6,8.8-11.1,17.6-16.5,26.5c-1.5,2.3-7.9,13.7-9.9,14.2C15.5,253,11.9,243.3,10.4,237.9z"/>
	<path class="st0" d="M77.6,92.9l-0.2-0.3l0.8-0.4c9.7,1.5,8.8,0.4,17,0.2l0.2,0.6C89.6,94.7,83.3,94.3,77.6,92.9z"/>
	<path class="st0" d="M49.8,210.9l-0.9-0.3c2-3.3,9.7-17.1,11.7-19.6C59.3,194.2,51.9,207.4,49.8,210.9z"/>
	<polygon class="st1" points="98.1,117.1 98.5,117.4 98.5,117.6 98.1,117.4 	"/>
	<polygon class="st1" points="98.2,116.4 98.2,116.8 98.1,116.8 	"/>
	<polygon class="st1" points="98.5,117 98.1,117.1 98.2,116.8 	"/>
	<polygon class="st1" points="98.1,117.1 98.1,117.1 98,117.1 	"/>
	<polygon class="st1" points="98.5,117.8 98.5,117.6 98.6,117.7 98.6,117.9 98.1,117.9 97.9,117.7 	"/>
	<path class="st1" d="M98.5,118.5c-0.1,1.2-0.4,6-0.7,6.8l-0.6-0.2c0.3-2.3,0.6-4.6,0.7-6.9L98.5,118.5z"/>
	<path class="st1" d="M98,118.1C98,118.1,98,118.1,98,118.1l-0.1,0L98,118.1z"/>
	<path class="st1" d="M98.1,117.9l0.4,0.3l-0.5-0.1c0-0.1,0-0.1,0-0.2L98.1,117.9z"/>
	<path class="st2" d="M227.3,86.5c-8.1,25.4-17.7,56.6-19.5,83.2c12.9-13.2,19.2,3,33.2,0.7c8.9-1.5,12.8-8.2,20.3-12.2
		c2.7,1.8,6.5,6,10,4.5c3.5-1.4,5.8-5.5,8-8.4c1.5-2.1,3.3-4,5.2-5.8c4.3-4.1,7.1-5.4,12.5-7.3c-4.4-5.8-9.5-11-14.3-16.5
		c-7.9-9.1-15.5-18.4-22.9-27.9c-2.6-3.4-8.1-10.2-9.9-13.6C242,86,235.9,87.8,227.3,86.5z M279.4,138.3l-0.3-0.4l-1.4,0.3
		c0.3-1.4,0.3-2,1-3.4c1.3,0,2.1-0.1,3.2,0.5l-0.1,1.2l0.3,0.2c1.1-0.6,1.6-1,2.9-1.2c1,0.7,0.7,0.4,1.1,1.7
		c-0.4,1.4-0.5,1.2-1.9,2.2c0.9,0.6,1,0.6,1.4,1.6c-0.3,1,0,0.6-1,1.2l-0.7-0.3c-0.3,0.9-0.5,0.9-1.3,1.4c-1.2,0.2-0.8,0.3-1.8-0.3
		c-0.3-0.6-0.4-1-0.6-1.6l-0.1-0.4c-1.2,0.6-2.1,1.2-3.2,0.6C275.4,138.6,278.4,139.5,279.4,138.3z M257.2,153.2
		c0.4-0.4,0.5-0.5,1-0.7l0.4-0.2c-0.2-0.5-0.6-0.8-1-1.3l0-0.7c1.2-1.1,1.2-0.9,2.8-1.3c0.7-0.3,0.7-0.3,1.4-0.2l0,0.8l0.3,0.3
		l1.2-0.6c1.1,0.3,1.8,0.5,2,1.6c-0.5,0.9-0.9,1.1-1.8,1.7l-0.3,0.2c-0.1,0.6,0.2,0.9,0.5,1.6c-0.5,1-0.4,0.7-1.6,1.5
		c-0.4-0.4-0.9-0.8-1.3-1.1c-1.2,0.2-1.4,0.3-2.5,0C257.2,153.8,257.3,154.1,257.2,153.2z M232.6,159.1c1.2-1.1,1-0.1,2.5-0.8
		c-1.1-0.7-2-1.1-2-2.5c0.8-0.9,1.9-0.4,3.2-1.8c0.6,0,1.1,0.1,1.7,0.1c0.3,0.9,0.3,0.9,0.8,1.8l1-1c1.7,0.7,3,0.9,3.3,2.9
		c-0.9,1.1-1,0.6-2.2,1.2c-1.2,0.6,0.7,0.9,0.1,3.2c-0.9,0.9-1.3,0.8-2.6,1.1c-1.1-1.2-0.2-1.1-1-2.1c-1.2,0.8-1.4,0.9-2.8,1.2
		C232.9,162.1,232.4,160.9,232.6,159.1z M218.7,156.6c-0.5,0.9-0.9,0.9-1.9,1.4l-0.9-0.8c-0.2-0.8-0.1-1-0.7-1.7
		c-0.9,0.2-1.4,0.3-2.3,0.4l-0.5-0.6c-0.3-1.7,0.7-3.3,1.3-4.8c0.3-0.8,1.4-0.8,2.2-1c0.6,0.6,0.8,0.9,1.2,1.7
		c1.4-0.3,2.3-0.5,3.5,0C220.7,155.5,217.5,151.7,218.7,156.6z"/>
	<path class="st3" d="M169.9,60.4c1.6,4.8,3,9.2,4.9,13.8c9.2,22.6,15.1,47.1,16.1,71.5c0.2,4.6,1.2,17.2-5.8,17.3
		c-1.2,0-2.5,0-3.6-0.5c-0.4-0.9,0.5-8.5,0.5-10.2c0.1-16.1-1.8-32-3.9-48c-0.2-1.5-1-8.3-1.5-9.1c0.2,6.4,1,13.8,1.6,20.3
		c0.7,8.2,1.2,16.5,1.5,24.7c0.3,5.7,0.5,12.1,0.1,17.8c-4.2-2.8-7.2-2.7-11.7-0.4c-1.5-19.9-1.1-40-2.5-60c-0.1-1.4-0.1-3-0.4-4.3
		l0-3.3c-0.2-2.8-0.4-5.3-0.8-8.1c0.1-1.3,0.3-2.8-0.3-3.9l-0.3,0.2c-0.2,1.5,0,2.2,0.2,3.6c0.1,2.2,0.1,4.6,0.4,6.7
		c0,2.3,0,5.3,0.1,7.6c0.3,10.3,0.6,20.6,0.7,31c0,6.5-0.2,30.5,2.5,35.4c-8.3,8.9-17.4,8.8-25.3-0.3c2.3-6.3,2.8-12.4,4-19
		c2-10.6,3.5-21.7,5.7-32.1c0.6-3.1,1-5,1.3-8.2c-0.7,2.4-1.4,4.8-2,7.3c-3.5,15.4-6.8,30.5-9.2,46.1c-4-1.1-4.7-1.7-8.5,0.6
		c1.1-24.5,9.2-50.2,15.8-73.8c0.4-1.3,1-2.3,0.8-3.7c-1.1,2.3-3.7,11.2-4.7,14.2c-5.9,17.5-15.3,49.7-13.6,67.5
		c-3.8-0.5-5.2-0.7-8.4-2.8c3-26.9,10.9-53.3,20.7-78.4c2.3-6,4.4-12.2,6.4-18.3c2.6,1.7,5.2,3.6,7.9,5c1.2,0,2,0.2,3.2,0.4
		C164.9,65,167.3,62.9,169.9,60.4z"/>
	<path class="st0" d="M170.1,60l-0.2,0.5c-2.6,2.5-5,4.6-8.1,6.6c-1.2-0.2-1.9-0.4-3.2-0.4c0.9-0.5,1.2-0.5,2.2-0.7
		c2.8-1.7,6.2-4.7,8.7-6.9L170.1,60z"/>
	<path class="st0" d="M152.1,111.1l-0.7-0.9c0.6-2.4,1.3-4.9,2-7.3C153.2,106,152.8,108,152.1,111.1z"/>
	<path class="st0" d="M165.2,90.1l0,3.3l-0.1,2.6l-0.5,0.2c-0.1-2.3-0.1-5.3-0.1-7.6L165.2,90.1z"/>
	<path class="st1" d="M164.1,81.9l0.4,0.1c0.4,2.8,0.6,5.3,0.8,8.1l-0.8-1.5C164.2,86.5,164.2,84.1,164.1,81.9z"/>
	<path class="st0" d="M77.4,90.1l-0.4-0.3l0.2-0.5c4.6,0.2,9.1,0.5,13.7,0.2c1.1-0.1,2.2-0.3,3.4-0.1l0.5,0.5
		C88.9,91,83.3,91,77.4,90.1z"/>
	<path class="st2" d="M236.7,55.5c4.3-4.4,7.4-7.5,11.1-12.4l2.3,2.5c-1.2,10.2-3.3,16.9-3.9,28.2c-6.8,2.3-11.9,2.9-19,1.6
		c-2.4-8.6-4.2-14.6-8-22.8c1.3-3,1.9-4.8,2.9-7.9C227,48.3,231.8,52.1,236.7,55.5z"/>
	<path class="st3" d="M172.9,42.3c-1.1,3.1-1.2,3.8-1.9,6.7c-0.4,1.9-1,9.2-1.4,10c-2.6,2.2-6,5.2-8.7,6.9c-3.6-1-6.9-3.9-9.9-6.1
		c-0.5-6.7-1.5-9.3-4.1-15.4C155.9,49.4,165.6,50.7,172.9,42.3z"/>
	<path class="st0" d="M646.4,110.7c-2.2,5.9-6.1,15.3-7.6,21.1c-4.2,0.8-7.6,1.3-11.8,1.8l-0.5,0.1c-0.5,0.8-0.4,0.4-0.3,1.3
		l0.5,0.5c4.7-0.3,8.5-0.4,13-2c1,0.9,2,1.9,2.9,2.8c-5.8,1.7-9.5,2.5-15.7,2.7c-0.5,0.6-0.4,0.2-0.3,1.1l0.4,0.4
		c5.7-0.3,10.9-1.1,16.2-3.3c5.3,4.7,10.2,10.3,15,15.5c17.5,18.9,33,39.5,46.3,61.6c1.9,3.1,6,9.9,7.3,13.1
		c-7.3,10.8-12.9,15.8-24.3,22.4c-3.6-24.5-13.7-48.9-26.9-69.8c-0.5-0.8-1.5-2.4-2.2-2.9l-0.1,0.3c2.7,5.1,5.1,9,7.6,14.4
		c7.7,16.4,12.4,33.2,16.5,50.7c-17,7.1-39.1,15-57.7,8.1c-8.8-3.2-13.9-10.8-22.9-13.1c-1.8-0.5-4.3,0.2-5.8-0.1l-0.2-0.3l-0.7,1.1
		c1.6,0.7,2.4-0.8,5.2,0.5c3,1.3,4.5,2.4,7.1,4.4c-0.2,2.6-0.4,5.7-0.2,8.3c0.4,6.4,6.1,11,9.6,15.8c2.5,3.5,4.9,7,7.2,10.6
		c7.2,11.4,13.8,23,20,35c2.1,4.1,3.8,8.4,5.8,12.3c-0.3-7.1,0.3-14.4-0.3-21.6c-0.3-4.1-2.6-8.7-3.5-12.4
		c-4.6-19.1-7.5-22.4-19.7-36.6c6.8,1.6,10.1,2.2,17.2,1.8c7,22.3,8.8,52.3,6.1,75.6c-0.5,4.2-11.5,22.6-14.9,25.4
		c7.6,3.5,14.7-9.5,20.1-12.4l0.1,0.2c-3.9,4.5-14.9,17.6-21.4,12.1c-3.4,0.1-11.6,1.6-6.3,7.3c2.3,2.5,10.6,1.5,13.6,1
		c5.2-0.6,7-6.1,10.1-10.1c-0.2,2.2-0.7,7.9,0.4,9.6l0.5,0.1c0.5-0.4,0.5-0.4,0.8-1c-0.3-3.3,6.2-12.1,7-16c1-5.3-1.1-8.2-3.7-12.6
		c0.3-2.7,0.5-5.3,1.1-8c2.4-15.6,10.1-37.1,8.8-52.8c-0.4-4.4-4.5-14.5-5.6-21.1c8.5-2,15.2-4.7,22.8-9l1.6,10.2
		c12.5-4.7,24.4-13.5,29.1-26.5c-1.4-4.3-5.1-11.3-7.2-15.3c-12.5-23.5-28.3-45.1-46.9-64.2c-6.2-6.4-12.3-10.8-18.4-16.8
		c3.6-7.5,6.8-15.3,9.9-23c3.8-9.4,6.9-19.5,2.5-29.3c-4-2.5-7.5-3-12.2-2.1c-5,1-11.3,3.1-14.3,7.6c-5.4,8.1-16.6,9.5-14.4,21.1
		c-0.7-1-1.5-1.9-2.3-2.8c-6.5-7.2-11.9-15.3-18.7-22.3c-4.4-4.6-4.4-4.6-15.3-4.8c-2-2.8-6.4-9.2-8.5-11.2
		c-3.2,0.8-7.5,2.3-10.5,3.7c3.4,5,7.9,9.1,11,14.2c1.6,2.6,2,10.1,3.5,11.8c3,3.4,9.1,0.9,13,5.8c3.4,4.3,5.9,8.5,8.7,13.2
		c5.7,9.5,10.6,16.2,18.8,23.6c2.5-2.4,5.8-6.7,8.4-9.5c5.8-6.1,11.7-12,17.6-18l3.8-3.8c4.9-4.8,11.4-11,9.8-18.6
		c-1-4.8-5.6-6.9-10.1-5.6c-2.1,0.6-4.8,2-6.4,3.7c-3.9,5-6.4,11.1-10.1,16.3c-4.5,6.7-9.6,13-13.5,19.9c-6.8-8-17.8-15.9-23.4-25.4
		c-0.6-1-1.1-3.1-1.4-4.2c-0.6-3.5-3.3-6.1-3.5-7.6c0.1,2.8,2.4,4.6,2.9,7.5c3.2,1.2,4.5,0.8,7.9,0.4c2.1,2.4,4,6.5,5.2,9.4
		c3.7,8.4,5.6,11.7,12.1,18c1.7-3.1,3.7-6.1,5.8-9c-5.5-5-3-10,0.2-14.7c0.3-0.4,1.5-1.7,1.8-2c2.7,1.1,4.3,1.7,6.9,2.8
		c3.9-6.6,6.8-13.9,15.1-16c5.1-1.3,10,1,11.2,6.3c1.7,7.7-3.2,13.1-8.5,17.7c-1.1,1-3.2,2.8-4,4C642.4,109.8,644,110.8,646.4,110.7
		z M580.5,85.8c-0.9,1.1-2.2,1.6-3.5,0.9c-2.7-0.6-8.6-8.7-10.6-11c-0.9-1-3.3-3.4-3.5-4.2c-0.6-0.8-0.6-1.4,0-1.4
		c1.4-0.1,4.1-1.3,5.5-1.8c1.5,1.8,11.7,15.6,11.9,17L580.5,85.8z"/>
	<path class="st0" d="M660.5,340c0.1-1.6,1.4-4.5,2-6.3l-0.1-0.1c-1.4,2.6-1.8,3.5-2.7,6.3c-3.4-5-1.8-9.1-0.7-15.2
		c2,3,4.3,5,6.7,6.9c3.7,2.9,3.7,9.9,4.7,14.2c0.6,2.3,1.2,4.6,1.6,7l-0.4,0.4c-2.6-1.1-4.5-9.6-7.5-10.1c-0.8,0.6-1.3,2.5-1.3,3.5
		c-0.3,9.1,1.5,12.5-8.5,15.4c-0.5,0.9-0.9,1.8-1.3,2.7c-0.2-3.2,5.8-12.4,6.8-16.1C660.9,345.2,660.2,343.5,660.5,340z"/>
	<path class="st0" d="M577,86.7l3.3-1.4l0.2,0.5C579.6,86.9,578.3,87.4,577,86.7z"/>
	<path class="st0" d="M626.1,134.9l0.5,0.5c0.3,1,0.6,2.4,0.3,3.5c-0.5,0.6-0.4,0.2-0.3,1.1l0.4,0.4c1.2,5.8-0.3,18-1.8,23.7
		c-3.9,15-10,30.2-15.9,44.5c-3.9,9.3-8.4,19.8-13.2,28.6l-0.2-0.3c3.8-8.3,8.4-21.3,11.7-30c5.6-15,11.4-31.2,15.1-46.7
		c1.7-7.3,3.6-26-0.6-32.4c0.9-1,1.6-1.5,2.7-2.4c0.9,2.4,1.5,6.6,2.3,8.2l-0.5,0.1C626,134.4,626.1,134,626.1,134.9z"/>
	<path class="st0" d="M662.9,6.5c-4.1-1-8.5-0.4-12.2,1.7c-2.6,1.6-4.2,3.5-5,6.4c0.3,4.3,1.5,6.1,3.5,9.9c-2.3-2.7-4.7-6-4-9.7
		c-2.3-1.5-7.6-1.5-10.2-1.2c-9.4,0.9-19.4,6-25.1,13.6c-4.9,0.1-10.7,0.6-14.3,4.3c-5,5.1-1.8,13.5,2.9,17.6c0.4,0.4,0.8,0.7,1.2,1
		c-2.8-5.3-2.3-7.8,0-13.2c0.8,9.4,5,16,13.7,20.3c-3.5-5.6-5.9-8.5-6.3-15.4c1.2,1.4,2.3,2.6,3.7,3.9c1.8,1.7,5.9,3.6,5.6,6.3
		c-0.2,2.5-2.2,4.6-4,6.1c-0.4,0.3-0.8,0.6-1.2,0.9c2.1,1,3.4,1.5,5.6,2.3c-0.4,1.3-0.7,1.4-0.5,2.5c1.1,1.1,2.2,0.1,2.8,1.1
		c-0.3,1.2-0.4,0.9,0.1,1.7c1,0.3,2.9,0.7,3.2,1.7c0.9,3.2,3.2,3.2,6.1,1.4c3.5-2.2,6.5-5.1,8.7-8.7c0.5-0.8,1.8-3.2,2.3-3.7
		c-0.3,0.7-2.1,4.4-2.1,4.8c-0.3,3.9,1,7.9-0.9,11.6c-1.2,2.4-2.9,4-4.5,6c6.6-3.1,11.9-5.4,19.2-2.9c0.5,0.2,1,0.4,1.4,0.6
		c-3.1-8-4.3-12.9-6.6-21c-2,0-5.7-0.5-6.4-2.8c2.4,0.1,2.1,2.4,6.5,2.1l0.4,0c10.9-4,13.8-11,14.8-22.1c2.7,0.5,5.4,0,7.8-1.3
		C679.9,26.6,675.3,9.7,662.9,6.5z M646.4,54.5c3.5-1,4.7-1.9,7.4-4.5l0,0.3C652.2,52.7,649.4,54.7,646.4,54.5L646.4,54.5z
		 M648.3,50.6l0.2,0l-0.1,0.3c-2.2,1.1-4.2,1.4-6.7,1.5l-0.3-0.2C643.9,51.7,645.8,51.4,648.3,50.6z M651.1,27.1
		c3.6,3.3,5.7,4.6,10.1,6.5c-4.8,0-11.2-5.2-13.3-9.4C648.3,24.4,650.5,26.5,651.1,27.1z M656.2,16.9c0.3,1.4,0.9,2.2,1.6,3.4l1,0.9
		l-0.1,0.3c-4.2-2.3-4.9-9,0.2-11.3c1.2-0.1,1.4-0.1,2.6,0.2C657.6,11.3,655.3,12,656.2,16.9z M663.2,12.2c-2.5,0.2-3.6,0.1-5.5,1.8
		c-0.2,1.2,0.2,2.5-0.1,3.2c-1.2-2.7-0.6-4.3,2-5.5C661.3,11.7,661.8,11.6,663.2,12.2z M668.3,22.9c-4.5,5.3-10.4,3.4-14.2-1.4
		c-0.8-1.1-1.5-2.3-2.2-3.5c-0.3-0.3-0.3-0.3-0.6-0.6c-0.7-0.9-1-2.1-0.9-3.2c0.5-0.7,0.5-1,0.6-1.9l0.1,0.5c2.5-4.9,6.6-6.3,11.8-5
		c-22.3,0.4-4.2,25.7,5,14.7c0.9-2.7,1.1-3.7,0.3-6.5c-0.1-0.3,0-0.3,0-0.6C670.1,16.7,669.5,21.2,668.3,22.9z M672.7,24.5
		c-3.8,4.9-12,6.9-17.1,3.2c-4.9-3.5-10.4-10.7-6.4-16.7c0.2,0.7-1,3.8-0.7,4.9c3.3,11.5,15.2,17,24.2,7.9L672.7,24.5z"/>
	<path class="st0" d="M651.3,17.3c-0.7-0.9-1-2.1-0.9-3.2c0.5-0.7,0.5-1,0.6-1.9l0.1,0.5c0.1,2.1,0.2,3.1,0.7,5.2
		C651.6,17.7,651.6,17.7,651.3,17.3z"/>
	<path class="st1" d="M668,22.5c0.9-2.7,1.1-3.7,0.3-6.5c-0.1-0.3,0-0.3,0-0.6c1.7,1.5,1.2,5.9,0,7.6L668,22.5z"/>
	<path class="st0" d="M397.4,228.7c8,3.1,8.7,9,13.1,15.8c4.1,6.4,10.5,10.5,18.1,7.5c3.8-1.5,9-6.7,4.9-10.7
		c-3.3-0.9-6.9,4.8-9.9,3.1c-8.9-5-8.9-15.3-18.8-19.7c4.1-1.8,8-3.5,11.3-5.9c21.5-15.6,14.5-30.1-10.6-29c-1.8,0.1-4.4,0-6.2,0.1
		c-9,0.5-22.4,1.5-29.3,8.1c-2.8,2.6-4.3,9.7,1.3,9.6c2.5-1.4,4.5-4,6-4.9c3.9-2.4,12.1-4.8,16.5-5.3c-3.1,10.3-11.7,23.6-17.7,32.5
		c-2.2,3.3-6.7,9.4-8.1,12.9c1.8,4.2,2.6,4.8,6.7,6.7c3.3-3.4,9.9-16.5,12.4-21.3C392.5,231.3,394.4,228,397.4,228.7z M400.8,196.6
		l0-0.5c5.3-0.2,26.8-2.1,18.3,9.6c-3.2,4.3-7.8,7.6-12.4,10.4c-2.8,1.5-11.4,5.9-14.1,4.5C391.2,216.7,401.7,206.3,400.8,196.6z"/>
	<path class="st0" d="M167.9,209.3c-0.9,5,3.7,6,7.4,6c-3.7,7.1-9.8,18.8-7.5,26.9c3.1,10.6,20.8,9.2,25.2,0.4
		c0.4-0.7,0.7-2.2,1-3.1c-4.2,1.2-17.6,6.6-18.5-0.1c-0.8-5.8,6.3-20,9.5-24.6c6.1-0.9,12.2-1.5,18.4-1.8c2.1,1.8,2.8,2,5.6,2.6
		c-4.6,7.7-11.2,20.4-6.7,29.1c7.6,8.3,24.8,4.9,25.2-5l-0.4-0.5c-3.5,0.1-18.7,8.9-18.4-1.8c0.2-5.4,6.7-17.6,9.4-22.6
		c5.8-0.7,14-1.3,19.9-2.2c0.3-0.3,0.6-0.6,0.8-0.8c0.3-1.4,0.4-0.9-0.2-2.2c-3.1-2.3-12.3-0.9-16.7-0.9c2.3-3.2,9.8-11.3,7-14.7
		c-1.5-0.7-4.4-1.4-5.6-0.6c-3.4,2.1-9.1,12.4-11,15.8c-4.6,0.1-7.7-0.4-12.2-0.7c-3.1-0.2-8.1,0.2-11.3,0.4
		c3.6-5.1,14.6-16.3,1.3-15.7c-4.1,3.9-7.8,11.4-11.5,16C174.9,209.2,169.7,208,167.9,209.3z"/>
	<path class="st0" d="M540.1,206.3c-0.4-1-1.2-1.8-2.2-2.1c-0.8-0.3-2.4-0.2-3.3,0c-3.1,4.2-12.9,29.1-15.3,35.6
		c-0.4,1.1-0.9,4.3-0.6,5.5c0.2,0.8,0.3,0.9,0.7,1.5c7.2,4.6,7.6-6.8,10.4-10.2c4.4-5.5,15.8-19.9,22.1-22l0.9,0.1
		c0.5,1.1,0.4,1.5,0,2.7c-1.7,4.4-13.5,23.5-12,26.8c0.4,0.9,1.3,1.6,2.3,1.8c1,0.3,1.6,0.1,2.5-0.2c8.6-8.6,13.4-19.2,24.8-28
		c1.6-1.2,3.2-2.6,5.1-3.1l0.9,0.2c1.8,4.7-13.1,23.5-10.2,30.5c1.2,3,4.7,2.3,7.1,1.6c-0.1-5,6-16.6,8.5-21.3
		c14.7-28.3-8.1-18.6-21.8-6.9c1.6-3.7,4.2-9.3-0.9-11.4c-6.9-2.8-17.9,8.6-22.3,12.8C538.1,216.8,541.4,209.6,540.1,206.3z"/>
	<path class="st0" d="M335.3,293c17-15.1,42.4-16.9,64.1-15.8c42.4,2.1,84.2,14.2,126.9,8c21.9-3.2,51.2-19.1,64.2-37.1v2
		c0,0-7.5,8.7-12.8,12.8c-5.3,4.2-18.6,13.6-27.4,17.4c-49.2,21.4-104.6,3-155.7,0.9c-15.1-0.6-28.8-1.3-43.2,4.5
		c-15.4,6.2-25.6,18.8-22.7,36.2c0.5,2.8,2.8,7.1,2,9c-1.1,0-0.8,0-1.8-0.8c-0.2-0.3-0.4-0.6-0.6-0.9c-3.8-5.5-5.2-12.2-3.8-18.7
		C325.7,303.7,330.1,297.5,335.3,293z"/>
	<path class="st0" d="M97.9,193.1c-8.3,3.8-8.5,7.1-1.5,12.6c4.9-9.4,13.7-8.9,23.2-9.5c-5.1,6.6-8.6,14.3-12.2,21.8
		c-2.8,0.4-5.3,0.3-7.1,2.5c-0.5,2.6,0.9,3.5,2.9,5c-3.2,5.6-6.6,11.9-10,17.3c-3.3,6.2-5.6,11.7,5.9,11.2c2-0.1,2.9-4.5,3.5-5.9
		c2.9-8.7,6.1-16.7,10.7-24.7c4.2-0.4,20.7-0.5,23-3.2c0.4-0.4,0.5-1.3,0.4-1.9c-0.1-1-0.7-1.8-1.5-2.4c-4.1-2.7-13.6-0.3-18.2,0.7
		c3-6.8,7.6-14.6,12.5-20.2c6.3-0.1,23.4,1.5,23.9-7.5c-0.6-1.4-0.2-0.9-1.6-1.7c-0.5,0-1.3,0-1.8,0.1
		C133.5,192.4,114.7,185.4,97.9,193.1z"/>
	<path class="st0" d="M327.9,245.1c5.2-8.5,9.2-16.3,14.2-24.7c5.5-9.3,0.9-15.2-9.2-15.2l-0.3,0c-8.2,0.9-14.2,4.5-19.5,10.9
		c-4.7,5.7-9.8,16.4-3,22.4c4.1,3.6,11.7,0,15.2-2.9c-5.2,9.8-11.7,17.9-23.7,12.7l-1-0.4l-0.8,0.4c-0.2,1.5,0.1,2.4,1.1,3.5
		C309.2,261.3,322.5,253.9,327.9,245.1z M317.6,234.2c-9.3-2.5,5.5-21.5,16.2-22.7c1,0,1,0,1.9,0.4c0.5,1.9-1.3,4.9-2.4,6.4
		C329.3,224,324.6,232.4,317.6,234.2z"/>
	<path class="st0" d="M509.9,235.1c5.6-6.6,11.1-19.1,3.2-26.3c-1-0.9-4.3-2.5-5.7-2.5c-23.5,2.8-40.7,37.9-17.2,41.3
		C498.8,246.6,504.1,242,509.9,235.1z M488.4,231.7c3.7-8.5,8.1-13.8,16.6-17.6c6-0.3,5.5,4.3,4,8.4c-3.1,8.3-9.4,14.8-17.4,18.4
		C485.9,241.2,486.8,235.3,488.4,231.7z"/>
	<path class="st0" d="M471.6,219.6c-0.2-5.7-3.1-14.9-10.4-14.2c-19.3,5.4-38.2,38.1-14.3,42.1C460.5,247,472.1,233.1,471.6,219.6z
		 M443.4,237c1-10.3,6.2-18.9,16-22.8c10.9-0.5,3.2,21.9-10.9,26.8C445.1,241.1,444.7,239.8,443.4,237z"/>
	<path class="st0" d="M258.1,247.8c2.4-0.2,3-1.9,3.4-4.1c2.6-12.4,12.8-25,25.3-28.3c1-0.3,2.1,0,3.1,0.5c2,2.5,0,5.5-1.1,8
		c-1.9,3.6-11.3,18.6-11,21.2c0.7,1.8,3,3.5,5,3.2c3.3-2.4,6.6-8.8,8.6-12.3c3.3-5.7,9.1-15.2,7.7-22c-2.4-11.5-18-2.9-23.1,0.8
		c3.7-5.3,7.5-10.6-2.5-11.1C267.9,208.7,244.5,243.1,258.1,247.8z"/>
	<path class="st0" d="M143.8,249c1.3,0.2,0.8,0.3,1.7-0.2c2.7-4,4.6-10.2,6.5-14.9c1.5-3.8,3.2-7.5,5.1-11.1
		c1-1.9,6.2-10.1,6.4-11.1c-1.4-1.3-2.4-1.1-4.3-1.1c-0.5,0-1.1,0-1.6,0.1C150.5,214,134.1,242.4,143.8,249z"/>
	<path class="st0" d="M238.7,248.2c1.8-2.4,0.5-6.8,1.7-11.1c2.2-7.9,8.8-16,11.6-23.3c0.6-1.5-3.3-3.8-5.8-3.7
		C240,214.6,222.2,250.6,238.7,248.2z"/>
	<path class="st0" d="M166.2,198c2.6-1.2,5.3-2.3,6.3-5.2c1.5-4.3-3-4.9-6-5C158.5,191.2,157,200.3,166.2,198z"/>
	<path class="st0" d="M256.3,200.9c4.8-3.1,10.9-11.1,1-11.1c-3.3,1.8-7.6,6.2-5.5,10.3C253.3,201.5,254.4,201.3,256.3,200.9z"/>
</g>
</svg>
