<?xml version="1.0" encoding="utf-8"?>
<!-- Generator: Adobe Illustrator 23.0.1, SVG Export Plug-In . SVG Version: 6.00 Build 0)  -->
<svg version="1.1" id="Layer_1" xmlns="http://www.w3.org/2000/svg" xmlns:xlink="http://www.w3.org/1999/xlink" x="0px" y="0px"
	 viewBox="0 0 1357 422" style="enable-background:new 0 0 1357 422;" xml:space="preserve">
<style type="text/css">
	.st0{fill:#49434D;}
	.st1{fill:#474747;}
	.st2{fill:#756E6C;}
	.st3{fill:#C5BDFF;}
	.st4{fill:#C869F4;}
	.st5{fill:#F4A9FF;}
</style>
<g>
	<path class="st0" d="M511.6,228c24.5,10.5,46.3-5.5,61.1-22.7c14.4,29.4,37.1,19.2,54.1-1.3c2.6,5.2,10.9,19.4,18.2,14.8
		c4.7-8.6,8.2-19.4,13.7-27.4c16.1-23.2,43.6-51,68.3-64.4c-7.6,27-35.8,58.8-22.5,87.6c7.5,16.3,43.5,15.5,51,0.7l-0.2-1.6
		c-5.7-1.9-11.1,4.6-17,1.5c-10.8-5.6-10.2-22.4-6.8-32.2c6.8-19.8,20.4-37,26.8-56.8c2.9-8.9,1-21.9-9.1-25.6
		c-1.1-0.4-2.2-0.8-3.3-1.1c-30,0.4-60.4,35.7-78.4,56.8c5.5-11.7,18.2-31.8,21.3-42.6c0.9-3.3,1.2-6.8,0-10
		c-1.3-3.6-4.3-6.1-7.8-7.5c-2.4-1-6.2-2.3-8.6-1.2c-1.9,0.9-30.4,58.1-33.6,64.8c-3.4,7.2-7,14.5-9.2,22.1
		c-1.6,5.5-2.7,11-3.3,16.7c-5.2,5.6-17.5,21.8-26,13.8c-3-2.8-4.5-8.1-4-12.3c3.6-20.9,16.8-39.9,25-59.3c3.4-7.6,11.5-20,5.3-27.8
		c-4.3-5.4-17-5.8-21.4-0.2c-12.2,15.5-20.9,37.3-26.9,56c-2.9,9-3.4,17.2-7.4,25.6c-5.8,12.8-31.7,32.9-45.2,20.4
		c-3.7-3.5-4.8-11.9-4.2-16.8c2.8-22.4,19-57.3,31.1-75.6c11.1-0.1,31.4,2.7,35.5-10c-1.3-7.6-20.1-4.9-26.1-4.7
		c3.5-4,15.7-16,15.5-20c-11.1-15.9-35.1,11.4-42,20.3c-5.1,0.2-24.7,0.4-23.1,9.1c3,4,8.2,5.5,12.9,6.5
		c-8.8,14.5-16.6,30.3-23.3,45.8c-5.1,12-5.7,23.2-12.4,34.7c-9.3,16.1-46.4,24.6-50,1.8c-3.3-21.3,18-65.7,29.1-83.1
		c10.1-0.4,33,1.9,35.1-11.1c-2.7-6.7-18.4-4.1-24.5-3.7c4.1-5.3,14.3-14.9,15.1-19.5c-1.9-5.7-8.6-4.5-13.8-4.3
		c-12.8,4.4-20.2,14.2-28.7,24.3c-5.1,0.1-33-1.7-21.8,11.7c1.7,2,9.2,3.2,12.1,3.6c-7.5,13.5-15.4,27-21.1,41.3
		c-4.3,10.8-5.8,24.2-11.9,34c-4.1,6.6-10.9,13.7-18.5,15.8c-3,0.9-6.1,1-8.9-0.7c-2.5-1.5-4.1-4.2-4.7-7c-4.6-22.6,42.3-83.5,26-95
		c-2.5-1.8-6.7-2.2-9.6-1.5c-9.2,2.2-16.6,16.4-20.8,24.1c-9.9,18.2-24.8,52.2-18.5,73c1.8,5.8,5.3,10.8,10.8,13.7
		c7.2,3.8,17.4,3.7,25,1.2c9.4-3.1,16.6-10.1,22.9-17.4c11.4,35.8,52.3,31.2,75.5,9.3c2.5-2.3,4.7-4.8,6.9-7.4
		C498.5,216.3,502.5,224.1,511.6,228z"/>
	<path class="st0" d="M806.7,302.1c8.3-13.9,22.4-44.6-5.8-47.7c-12.1-1.3-39.4,24.5-48.1,34.4c-4.9,5.7-9.6,11.5-14.1,17.6
		c5.1-13.1,18.2-39.3-1.7-47.5c-5.6-2.3-13.2,0.4-18.2,3c-24.6,13.2-39.5,32.9-56.7,53.5c7.4-16.3,17.6-30.2,20.5-48.2
		c-3.7-8.3-8.3-13.2-18-13.3c-2.4,4.3-3.3,8.2-5.1,12.6c-12.6,30-32.4,56.8-38.6,89.3c-2.2,11.3,2,18.5,11.8,24.5
		c1.4,0.8,2.2,0.7,3.9,0.6c2.7-1.9,8.1-15.1,10.6-19c17.8-27.7,43.2-56.8,71.5-73.7c-3.6,12.2-6.5,16.6-11,28
		c-5.9,15.1-28.4,49.1-20.7,64.1c1.9,3.7,7.5,6.2,11.3,7.8c14.5-26.6,59.5-85.8,84.6-100.9c-4.7,18-12.6,28.2-18.8,44.9
		c-26.7,77,40.1,62.1,48.8,41.3l-0.6-0.9c-8.2,0.6-16.2,9-24.2,1.7c-7.9-7.2-4.3-21.8-0.7-31.4C793,328.6,798.5,315.9,806.7,302.1z"
		/>
	<path class="st0" d="M343.6,313.1c13.7-18.6,13.2-45.1-6.8-58.8c-15.6-10.6-38.6-9.8-56.6-8.9c-15.7,1.1-45.3,2.3-57.7,13.2
		c-7,6.2-7.2,30,7,29.1c3.1-3.6,4.2-9.6,6.4-12.8c6.8-10.5,22.7-14.9,33.9-15.9C259.6,276.2,209,378,212.6,392.3
		c1,3.7,3.9,6.6,7.2,8.4c6,3.1,13.2,3.5,19.9,3.5c1.1-19.3,9.2-45,16.7-63c7.3,1.7,10.4,1.9,15,8.1c15.4,23.2,25.7,51.6,55.3,60.1
		c17.4,5,31-15.5,24.1-26.8c-3.8,0.1-6.1,1.8-9.2,2.2c-25.7,2.7-40.3-26.1-55.1-42.6C308.7,338.5,329.8,332,343.6,313.1z
		 M325.6,292.4c-6.6,16.9-20.9,26-37.1,32.7c-10.3,3.6-16.6,4.8-27.4,6.4c9.7-22.2,21.3-48.1,33.3-69.2
		C311.9,263.4,335,268.6,325.6,292.4z"/>
	<path class="st0" d="M436.9,262c-84.1,8.6-111,123.6-24.7,121.9c22.8-2.9,44.2-12.8,57.8-31.6C497.5,314,496.5,257.4,436.9,262z
		 M452,342.8c-8.3,13-19.7,21.6-34.9,24.6c-36.5,4.7-31.2-38.4-16.8-58.1c11.7-16,19.2-23.7,38.6-28
		C478.4,278.3,465.1,322.3,452,342.8z"/>
	<path class="st0" d="M570.3,262c-23.7,2.3-45.6,13.9-60.7,32.3c-16.9,20.8-25.1,60.2-0.7,79.2c10.3,8,23.5,10.7,36.3,10.6
		c20.7-1,40.1-10.4,53.9-25.8C629.7,324.2,633.5,255.2,570.3,262z M546.7,367.7c-48.4-1.4-19.5-80.2,28.6-86.3
		C622,276.1,593.9,364,546.7,367.7z"/>
	<path class="st0" d="M237.4,148.6c2,0,3.1-0.8,4.6-1.9c3-5.4-1.8-12.5-2.1-18.7C238,90,262.7,82.5,294.2,80.2
		c-17.6,30.5-36.4,66.3-52.1,98c-9.8,20.5-30,51.8,11.5,48.2c2.9-0.2,4.1-14.4,5.2-17.5c5.5-15.1,11.7-29.9,18.1-44.6
		c19.1,4.1,43.5,6.1,61.4-3.3c6-3.1,15-18.9,5.8-21.5c-5.8,2.1-11.6,6.5-16.9,8.6c-12.4,4.9-31.1,2.7-44.4,1.2
		c8.6-19.9,22.7-51.7,34.3-70c34.2-2.7,70.3-6.1,94.7-33.3c6.5-7.2,16.2-31.6,6.9-38l-0.6,0.6c-3.9,4.1-6.3,8.8-9.8,12.9
		c-23,27-58,34.5-91.3,39.8c-35.4,5.6-101.9,1.5-99.6,53.7C218,126.1,222.6,148.7,237.4,148.6z"/>
	<path class="st0" d="M894.2,112.1c-0.8-20.8-27.7-26.8-45-24.1c-43.5,6.5-91.9,43.8-84.6,92.2c2,13.8,9.4,26.3,20.7,34.5
		c22.4,16.1,45.6,10.9,69.4,2.9c8.9,2.7,13.2,4.6,16.7-6.4c1.9-6.8,3.3-13.2,5.1-20.1c2.8-10.5,12.2-23.5,7.4-34.4
		c-2.1-4.9-9.8-4.6-14.2-3.5c-13,8.1-14.7,28.6-17.3,42.9c-8.1,6.8-18.6,10.1-29.1,9.1c-7.8-0.7-18.4-5.2-22.7-11.6
		c-28.5-42.6,26.2-104.2,72.9-84.4c4.6,1.9,9.7,11.6,12.9,15.3C891.9,128.2,895.6,116.1,894.2,112.1z"/>
	<path class="st0" d="M633.9,90.4c7.9-2.5,12.3-11,9.7-18.9c-2.6-7.9-11.1-12.2-19-9.6c-7.8,2.6-12.1,11-9.5,18.8
		C617.7,88.6,626.1,92.9,633.9,90.4z"/>
	<path class="st0" d="M407.4,64.1c-5.2,1.1-9.3,4.8-10.9,9.9c-1.5,5-0.2,10.5,3.5,14.3c3.7,3.8,9.2,5.2,14.2,3.8
		c7.4-2.1,11.8-9.7,10-17.3C422.5,67.3,415,62.6,407.4,64.1z"/>
</g>
<g>
	<path class="st1" d="M104,119.2c-0.9-1.4-3.4-3.5-4.7-4.7c-6.2-5.4-11.9-11.7-9.9-20.6c1.4-6.2,7.1-8.9,13.1-7.3
		c9.7,2.4,13.1,11,17.6,18.7c3-1.3,4.9-2,8-3.3c0.3,0.3,1.7,1.9,2.1,2.3c3.7,5.5,6.6,11.3,0.2,17.1c2.4,3.4,4.8,6.9,6.8,10.5
		c7.6-7.3,9.8-11.2,14.1-21c1.4-3.4,3.6-8.2,6.1-11c4,0.5,5.5,0.9,9.2-0.5c0.6-3.4,3.3-5.5,3.4-8.7c-0.2,1.7-3.4,4.8-4.1,8.9
		c-0.3,1.3-0.9,3.7-1.6,4.9c-6.5,11.1-19.4,20.3-27.3,29.6c-4.5-8-10.5-15.4-15.7-23.2c-4.3-6.1-7.2-13.2-11.8-19
		c-1.9-2-5-3.6-7.5-4.3c-5.2-1.5-10.6,0.9-11.8,6.5c-1.9,8.9,5.7,16.1,11.4,21.7l4.4,4.4c6.9,7,13.8,13.9,20.5,21
		c3,3.3,6.9,8.3,9.8,11.1c9.6-8.6,15.3-16.4,21.9-27.5c3.3-5.5,6.2-10.4,10.1-15.4c4.5-5.7,11.7-2.8,15.2-6.8
		c1.7-2,2.2-10.7,4.1-13.8c3.6-5.9,8.9-10.7,12.8-16.6c-3.5-1.6-8.5-3.4-12.2-4.3c-2.4,2.3-7.6,9.8-9.9,13.1
		c-12.7,0.2-12.7,0.2-17.8,5.6c-7.9,8.2-14.2,17.6-21.8,26c-0.9,1-1.9,2.1-2.7,3.3c2.6-13.5-10.5-15.2-16.8-24.6
		c-3.5-5.2-10.8-7.7-16.7-8.9c-5.5-1-9.6-0.5-14.2,2.4c-5.1,11.4-1.5,23.2,2.9,34.2c3.6,9,7.3,18.1,11.5,26.8
		c-7.1,7-14.2,12.1-21.5,19.6c-21.7,22.3-40.1,47.5-54.7,74.9c-2.4,4.7-6.8,12.8-8.4,17.8c5.5,15.2,19.4,25.4,33.9,30.9l1.9-11.9
		c8.9,5,16.7,8.2,26.6,10.5c-1.3,7.7-6.1,19.5-6.5,24.6c-1.5,18.3,7.5,43.4,10.3,61.6c0.7,3.1,0.9,6.2,1.3,9.3
		c-3,5.1-5.5,8.5-4.3,14.7c0.9,4.5,8.5,14.8,8.2,18.7c0.3,0.7,0.3,0.7,0.9,1.2l0.6-0.1c1.3-2,0.7-8.6,0.5-11.2
		c3.6,4.7,5.7,11.1,11.8,11.8c3.5,0.6,13.2,1.7,15.9-1.2c6.2-6.6-3.4-8.4-7.3-8.5c-7.6,6.4-20.4-8.9-25-14.1l0.1-0.2
		c6.3,3.4,14.6,18.5,23.4,14.5c-4-3.3-16.8-24.7-17.4-29.6c-3.1-27.2-1-62.2,7.1-88.2c8.3,0.5,12.1-0.2,20.1-2.1
		c-14.2,16.6-17.6,20.4-23,42.7c-1,4.3-3.7,9.7-4.1,14.5c-0.7,8.4,0,16.9-0.3,25.2c2.3-4.5,4.3-9.6,6.8-14.3
		c7.2-14,14.9-27.5,23.3-40.8c2.7-4.2,5.5-8.3,8.4-12.4c4.1-5.6,10.7-11,11.2-18.4c0.2-3,0-6.6-0.2-9.7c3-2.3,4.8-3.6,8.3-5.1
		c3.3-1.5,4.2,0.2,6.1-0.6l-0.8-1.3l-0.2,0.3c-1.7,0.3-4.7-0.5-6.8,0.1c-10.5,2.7-16.4,11.5-26.7,15.3c-21.7,8-47.5-1.2-67.3-9.4
		c4.8-20.4,10.3-40,19.2-59.1c2.9-6.3,5.7-10.8,8.9-16.8l-0.1-0.3c-0.8,0.6-2,2.4-2.6,3.4c-15.4,24.4-27.2,52.8-31.4,81.4
		c-13.3-7.7-19.8-13.5-28.3-26.1c1.5-3.7,6.3-11.7,8.5-15.3c15.5-25.8,33.6-49.8,54-71.8c5.6-6.1,11.3-12.6,17.5-18.1
		c6.2,2.6,12.2,3.5,18.9,3.8l0.5-0.5c0.1-1,0.2-0.6-0.3-1.3c-7.2-0.2-11.5-1.2-18.3-3.1c1-1,2.2-2.2,3.4-3.3c5.2,1.9,9.7,2,15.2,2.3
		l0.6-0.6c0.1-1,0.2-0.6-0.3-1.5l-0.6-0.1c-4.9-0.6-8.9-1.2-13.8-2.1c-1.7-6.8-6.3-17.7-8.9-24.6C99.6,121.2,101.4,120,104,119.2z
		 M173.9,91.5c0.2-1.6,12.1-17.7,13.9-19.8c1.6,0.6,4.8,2,6.4,2.1c0.7,0,0.7,0.7,0,1.6c-0.2,0.9-3,3.7-4.1,4.9
		c-2.3,2.7-9.2,12.1-12.4,12.8c-1.5,0.8-3,0.2-4.1-1L173.9,91.5z"/>
	<path class="st1" d="M81.1,398.6c1.2,4.3,8.2,15,7.9,18.8c-0.5-1-0.9-2.1-1.5-3.1c-11.7-3.4-9.6-7.3-9.9-18c0-1.2-0.6-3.4-1.5-4.1
		c-3.5,0.6-5.7,10.5-8.7,11.8l-0.5-0.5c0.5-2.8,1.2-5.5,1.9-8.2c1.2-5,1.2-13.2,5.5-16.6c2.8-2.2,5.5-4.5,7.8-8
		c1.3,7.1,3.1,11.9-0.8,17.7c-1-3.3-1.5-4.3-3.1-7.3l-0.1,0.1c0.7,2.1,2.2,5.5,2.3,7.3C80.7,392.6,79.9,394.6,81.1,398.6z"/>
	<path class="st1" d="M173.6,92l0.2-0.6l3.8,1.6C176.2,93.9,174.7,93.3,173.6,92z"/>
	<path class="st1" d="M119.9,147.9l-0.6-0.1c0.9-1.9,1.6-6.8,2.7-9.6c1.3,1,2.1,1.6,3.1,2.8c-4.9,7.5-2.7,29.3-0.7,37.8
		c4.3,18.1,11.1,37,17.6,54.5c3.8,10.1,9.2,25.3,13.6,35l-0.2,0.3c-5.6-10.3-10.8-22.5-15.4-33.4c-6.9-16.7-14-34.4-18.5-51.9
		c-1.7-6.6-3.5-20.9-2.1-27.6l0.5-0.5c0.1-1,0.2-0.6-0.3-1.3c-0.3-1.3,0-2.9,0.3-4.1l0.6-0.6C120.5,148.3,120.6,148.7,119.9,147.9z"
		/>
	<path class="st1" d="M70.3,29.6c2.8,1.5,5.9,2.1,9.1,1.5c1.2,12.9,4.5,21.1,17.3,25.8h0.5c5.1,0.3,4.8-2.3,7.6-2.4
		c-0.8,2.7-5.1,3.3-7.5,3.3c-2.7,9.4-4.1,15.2-7.7,24.5c0.5-0.2,1-0.5,1.6-0.7c8.5-2.9,14.7-0.2,22.4,3.4c-1.9-2.3-3.8-4.2-5.2-7
		c-2.2-4.3-0.7-9-1-13.5c0-0.5-2.1-4.8-2.4-5.6c0.6,0.6,2.1,3.4,2.7,4.3c2.6,4.2,6.1,7.6,10.1,10.1c3.4,2.1,6.1,2.1,7.1-1.6
		c0.3-1.2,2.6-1.6,3.7-2c0.6-0.9,0.5-0.6,0.1-2c0.7-1.2,2,0,3.3-1.3c0.2-1.3-0.1-1.4-0.6-2.9c2.6-0.9,4.1-1.5,6.5-2.7
		c-0.5-0.3-0.9-0.7-1.4-1c-2.1-1.7-4.4-4.2-4.7-7.1c-0.3-3.1,4.4-5.4,6.5-7.3c1.6-1.5,2.9-2.9,4.3-4.5c-0.5,8-3.3,11.4-7.3,18
		c10.1-5,15-12.7,16-23.7c2.7,6.3,3.3,9.2,0,15.4c0.5-0.3,0.9-0.7,1.4-1.2c5.5-4.8,9.2-14.6,3.4-20.5c-4.2-4.3-11-4.9-16.7-5
		c-6.6-8.9-18.3-14.8-29.3-15.9c-3-0.3-9.2-0.3-11.9,1.4c0.8,4.3-2,8.2-4.7,11.3c2.3-4.4,3.7-6.5,4.1-11.5c-0.9-3.4-2.8-5.6-5.8-7.5
		c-4.3-2.4-9.4-3.1-14.2-2C63.1,3.3,57.7,23,70.3,29.6z M96.8,55.5c-3.5,0.2-6.8-2.1-8.6-4.9v-0.3C91.3,53.3,92.7,54.4,96.8,55.5
		L96.8,55.5z M102.6,52.9l-0.3,0.2c-2.9-0.1-5.2-0.5-7.8-1.7L94.3,51h0.2C97.5,51.9,99.7,52.3,102.6,52.9z M95,20.2
		c-2.4,4.9-9.9,11-15.5,11c5.1-2.2,7.6-3.7,11.8-7.6C92,22.9,94.6,20.4,95,20.2z M79.2,4.1c1.4-0.3,1.6-0.3,3-0.2
		c5.9,2.7,5.1,10.5,0.2,13.2l-0.1-0.3l1.2-1c0.8-1.4,1.5-2.3,1.9-4C86.4,6,83.7,5.1,79.2,4.1z M81.4,5.6c3,1.4,3.7,3.3,2.3,6.4
		c-0.3-0.8,0.1-2.3-0.1-3.7c-2.2-2-3.5-1.9-6.4-2.1C78.8,5.5,79.4,5.6,81.4,5.6z M71.4,9.9c0,0.3,0.1,0.3,0,0.7
		c-0.9,3.3-0.7,4.4,0.3,7.6C82.4,31,103.5,1.5,77.5,1.1c6.1-1.5,10.8,0.1,13.8,5.8l0.1-0.6c0.1,1,0.1,1.4,0.7,2.2
		c0.1,1.3-0.2,2.7-1,3.7c-0.3,0.3-0.3,0.3-0.7,0.7c-0.8,1.4-1.6,2.8-2.6,4.1c-4.4,5.6-11.3,7.8-16.6,1.6
		C69.8,16.7,69.1,11.4,71.4,9.9z M66.1,19.7c10.5,10.6,24.4,4.2,28.2-9.2c0.3-1.3-1-4.9-0.8-5.7c4.7,7-1.7,15.4-7.5,19.5
		c-5.9,4.3-15.5,2-19.9-3.7V19.7z"/>
	<path class="st1" d="M90.5,12.8c0.6-2.4,0.7-3.6,0.8-6.1l0.1-0.6c0.1,1,0.1,1.4,0.7,2.2c0.1,1.3-0.2,2.7-1,3.7
		C90.7,12.6,90.7,12.6,90.5,12.8z"/>
	<path class="st2" d="M71.2,18.8c-1.4-2-2-7.1,0-8.9c0,0.3,0.1,0.3,0,0.7c-0.9,3.3-0.7,4.4,0.3,7.6L71.2,18.8z"/>
</g>
<g>
	<path class="st1" d="M951.2,399.9 M946.2,410.9 M951.2,399.9c-14.8-44.4,22.2-115.6,34.6-157.3c4.6-15.5,11.2-30.7,13-46.7
		c0.9-7.8,0.5-15.7-1.2-23.3c-3.8-17.4-15.7-38.1-7.1-55.8c1.3-2.7,4.3-5.7,6.2-8.2c5.2-7,2.2-17.7,0.4-25.6
		c2.4-3.7,5.3-7.9,7.6-11.6c8.7,1.3,15.3,1.2,14.5-9.3c2.7-2.1,12.8-2.3,16.8-2.5c-10.7,11.7-13.5,19.9,6.8,18.4
		c9.8-0.7,16.7-3,25.7-6.7c0.8,3.8,3.3,12.7,2.5,15.9c-2.1,9.5-7,19.5-10.9,28.5c-3.6,8.4-7,17-10.3,25.6
		c-11.3,30.9-21.2,70-23.8,102.8c-0.6,7.3,16.1,8.8,21.7,7.7c0-4.5-0.2-9.2,6.9-8.5c1,0.1,3.6,1.2,4.2,2c-0.5,2.1-1.1,3.9-1.7,6
		c11.1,15.7,24.9,18.3,41.8,7.9c8.4-5.1,1.5-16.8,16.2-14.6c9.1,1.3-0.1,10.1,10.2,11.3c12.8,1.5,16.8-5.7,18-17.6
		c4.8-46.8-10.1-97.2-30-139.2c-6.3-13.2-5.9-16.3-3-29.9c19.1,3.2,56.8-4.3,20.2-21.9c17.5-4.1,17.5-4.7,35.1-4.7
		c-3.3,2.1-7.6,4-11.1,5.7l32.3-7.7c0.9,18.1,1.2,18-5.7,34.8c4.3,10.7,13.8,33.2,15.7,44.1c-21,50.9-34.7,101.2-32.8,156.8
		c8.9-11.4,16.7-13.1,30.3-7.5c19.1,7.8,45.4,9.7,59.6-8.2c0.4-0.6,0.9-1.1,1.3-1.7c11.4,10.8,21,8.2,30.8-3.3
		c15.2-17.8,24.9-30.5,50.3-30.5c-19.5-26.1-43.8-51-66.2-74.7c-4.9-5.3-9.9-10.5-15-15.6c-8.8-8.8-12-11.7-18.7-22.3
		c0.1-11,4.1-36.9,6.6-47.1c-6.8-6.2-10.9-9.8-11.3-19.6c-0.1-2.7-0.2-5.4-0.2-8.1c7.4-0.1,19.8,0.2,26.6-0.5
		c-17.9-3.5-44-6.3-55.4-22.2c-3.6-5-6.2-16,3.9-12.6c4.3,1.4,4.4,5.1,5.4,8.9l0.6,0.1c2-3.3,1.2-9.2-2.5-11c-3-1.5-5.1-1.5-8.3-1.1
		c-12.4,6.2-3.4,16.7,3,23.9l-0.8,0.1c-9.2,0.9-20.4,9.9-29,13.2c-8.9,3.2-19.4,1.7-28.7,3.1c-4.2,0.6-18.5,5.5-21.1,4.8
		c-13.2-4-26.8-8-40.4-10.2l-0.4-0.4c-3.8-4-10.5-13-10.8-18.8c-0.2-3.7,4.3-5.6,7.4-5.2c6,0.5,6.1,4.4,7.2,9.3l1,0.1
		c7.4-10.8-13.1-17.3-18.1-8.2c-3.9,7,5.9,18.3,9.9,23.8c-11.3,5.8-22.7,11.5-33.9,17.5c-1.8,1-3.8,2-5.9,2.5
		c-9.4,1.4-18.2,1.7-27.6,3.9c-16.2-10.6-26-10.4-44.4-15.2c-4.3-4.7-14.1-14.9-14-20.8c0.2-7.4,13.2-7.9,12.5,3.2
		c1.3,0.4,0.7,0.4,1.9,0.2c2.5-3-1.3-9.7-4-11.1c-7.9-4-17.1,3-13.3,11.7c2.9,6.6,7.7,12.7,12.5,17.5c-16.3,0.9-30.6,7.3-44.1,16
		c-4.3,2.8-16.2,6.6-15.8,13c2.9,5.5,18.1,3.6,23.6,3.1c3.9,5.6,5.2,6.8,11.6,9.5c-2.2,14.9-3.1,18.6,5.9,30.6
		c12,15.9,0,40.6-3.2,57.4c-3,16.6-3.4,33.1-8.3,49.4c-14.7,42.2-60.4,119-90.7,149.3c1.9,11.7,9.4,32.2,25,27.2
		c9.2,20.9,28,24,47.2,14.2c12.9,5.9,19.1,6.7,30.3-2.7C946.2,410.9,952.6,404.2,951.2,399.9z M1230.4,54
		c-6,6.1-10.8,11.5-17.1,17.6l-5.7-3.3c-5.7-3.3-12-7.4-17.6-10.9c-0.5-5.9-0.9-11.3-1.9-17.1c9.5-0.8,19-1.5,28.5-2.1
		c2.2-0.3,10.4-0.3,13.1-0.4C1229.4,42.6,1229.7,49.3,1230.4,54z M1237.2,118.3l-0.4,0.9c-6.9,5.4-27.8,7.4-36.9,7.2
		c-1,0-0.8-0.1-1.7-0.4l-0.1-1.8c1.5-3.3,1.5-1.8,5.8-1.4c10.9,1.1,21.6-1.9,30.9-7.1l0.5,0C1236.5,116.8,1236.5,116.7,1237.2,118.3
		z M1234,111.3c-2.9,8.5-29,8.7-34.6,8.1l-0.7-6.2c12.1,2.8,23.9,1.1,34.6-5.3C1233.9,108.5,1234.2,110.6,1234,111.3z M1198.1,128.5
		c13.9,2.1,23.8-0.7,36.6-5.4l4.1-2.4l87.2,100.6c-16.3,2.2-26.2,10-36.3,22.4c-13.5,16.5-19.9,24.5-36.3,5.8
		c-4.8,21.2-31.9,22.9-49.2,18.9c-15-3.5-24.6-10.3-38.1,1.5c0.1-1.5,0.2-5.4,0.5-6.7C1169.4,220.1,1185,169.6,1198.1,128.5z
		 M1189.8,61c7.8,5.9,15.6,11.9,23.6,17.4c7-7,12-12.2,18-20.1l3.8,4.1l4.8,3.2c-1.5,7.3-2.8,14.6-3.8,21.9
		c-0.4,3-1.4,16.9-2.8,18.7c-1.8,0.9-2.5,1.2-4.4,1.9c-11.1,3.7-19.3,4.8-30.8,2.6c-3.8-14-6.8-23.6-12.9-36.9
		C1187.2,69,1188.3,66,1189.8,61z M1060.7,54.7l-7.8,0.3c-1.4,0-1.4,0.1-2.8-0.4c0.8-1.4,5.1-3.4,6.8-4.3
		C1058.4,51.2,1059.7,53.2,1060.7,54.7z M1112.6,46.6c-2,2-18.2,5-21.9,5.8c-9,1.7-16.5,2-25.6,2.5l-4.8-6.1
		c7.3-4,14.8-7.8,22.3-11.4c7.6,1,15.5,3.2,23.1,4.8C1108,42.6,1112.7,43.6,1112.6,46.6z M1111.2,65.7c1.1-4.7,2.9-10.4,4.3-15.1
		l5.8-1.9c5.2-0.8,20.7,5.1,19.7,12.5c-2,3.2-4.7,3.3-8.3,4.2C1125.4,67.1,1118.5,66.7,1111.2,65.7z M1110,55.8
		c-10.3,9.2-23.9,9.7-36.4,5c-2.4-1.2-5-2.6-7.4-3.8c18.9,0.4,25.8-0.4,44.3-6l0.6,0.2C1111.5,52.6,1110.6,54.3,1110,55.8z
		 M1068,60.5c14.5,8,30.3,10.1,42-3.4c-1.9,5-2,6.2-3,10.9c-0.7,3.1-1.6,14.9-2.2,16.2l0.8,1.4l-0.3,0.8c2.5,7.8,4.9,14.8,8,22.4
		c14.8,36.5,24.4,76.2,26,115.7c0.3,7.4,2,27.8-9.4,28c-1.9,0-4,0-5.8-0.8c-0.7-1.4,0.8-13.7,0.8-16.5c0.1-26.1-2.9-51.9-6.3-77.7
		c-0.3-2.4-1.7-13.4-2.5-14.7c0.3,10.4,1.7,22.4,2.5,32.9c1.1,13.3,1.9,26.7,2.4,40c0.4,9.2,0.9,19.7,0.2,28.8
		c-6.7-4.5-11.7-4.4-18.9-0.7c-2.4-32.2-1.8-64.8-4.1-97c-0.2-2.2-0.2-4.9-0.6-7l-0.2,4.2l-0.9,0.3c0.5,16.7,0.9,33.4,1.1,50.1
		c0.1,10.5-0.3,49.3,4,57.3c-13.4,14.3-28.2,14.3-40.9-0.6c3.7-10.2,4.5-20.1,6.5-30.7c3.2-17.1,5.6-35,9.3-52l-1.1-1.4
		c-5.7,24.9-11,49.3-14.9,74.6c-6.5-1.8-7.7-2.7-13.8,1c1.8-39.7,14.9-81.3,25.6-119.4c0.6-2.2,1.7-3.7,1.3-6
		c-1.8,3.7-6,18.2-7.6,23c-9.6,28.4-24.7,80.4-22,109.2c-6.2-0.8-8.4-1.1-13.5-4.5c4.9-43.5,17.7-86.2,33.5-126.9
		c3.8-9.8,7.1-19.7,10.4-29.7c4.2,2.8,8.4,5.8,12.8,8.2c1.4-0.9,1.9-0.8,3.5-1.1c-5.9-1.6-11.1-6.2-16-9.9
		C1073.8,74.6,1072.2,70.4,1068,60.5z M1041.5,58.4c3.3-0.7,8.2-0.8,11.6-1.1c2.8-0.3,6.7-0.3,9.6-0.4c2,4,3.3,7,5,11.2
		c-6.9,3.3-13.3,5-20.8,6.2C1028.9,76.3,1028.5,69.6,1041.5,58.4z M1009.9,62.9c2.3-0.1,3.4-0.5,5.2,0.8c1.1,1.9,1,1,0.5,3.1
		c-1.3,1.6-2.1,1.8-4,2.5c-2.2,0.6-3.3,1.2-5.3,0C1005.4,66,1007.1,64.1,1009.9,62.9z M927,73c-4.8,0.3-8.8,0.3-13.6,0.3
		c-2-0.3-3.7-0.1-4.2-2.2c1.8-3,10.1-6.2,13.6-7.8C923.4,63.8,926.3,71.4,927,73z M992,52.6c-0.9,3.6-1.8,6-3.1,9.4L961.2,65
		c-5.4,0.7-10.8,1.4-16.3,2.3c-5.1-3.9-6.6-5.7-10.2-11.1c9.9-4.8,19.7-7.5,30.5-9.1C970.3,46.5,986.3,51.1,992,52.6z M981.8,66.9
		c1.2-0.2,2.3-0.2,3.5-0.3l0.1,0.6c-2.5,3.8-8.1,9.6-12.5,11.1c-5.6,1.9-10.3-0.9-15.2-3.2l-8.2-4.3C958.9,69.1,972,68,981.8,66.9z
		 M1004.4,59.4c-1.6,1.7-0.8,1.2-3.3,1.9c-2.9,0.5-5.8,0.9-8.7,1.3c1.5-3.2,2.4-6.4,3.4-9.8C999.2,54,1004.4,55.2,1004.4,59.4z
		 M987.3,84.3c-5.6,2.6-11.4,5.5-17,8.3c-11.8-6.8-24.7-7.2-35-14.6c-4.5-3.2-11.2-15.3-5.7-20.6c2,1.3,4.9,6.2,6.9,8
		c9.5,8.2,22.4,15.3,34.7,17c10.8-4.1,15-9.3,20.7-18.8c3.7-0.7,7.9-1.1,11.6-1.6c-1.1,4.4-1.5,6-3.3,10.2
		C996.7,78.8,994.3,81.1,987.3,84.3z M847.2,373.6c34-33.7,83.4-111.1,93.3-157.8c2.5-11.7,3.7-23.9,5.7-35.7
		c1.7-10.1,4.1-19.8,6.7-29.7c0.9-3.3,1.2-7.7,2.5-10.7c0.1-0.2,0.2-0.4,0.3-0.6l-0.3-0.5l1.2-0.7l-1.1-0.5c-0.7-1.5-0.5-0.9,0-2.8
		l-0.6-0.6l0.3-0.7c-0.5-6.8-1.3-10.3-4.6-16.3c2.3-0.2,8-1,9.4-2.9c-4.1-2.2-12.1,3.2-15.6-8.6c-1.8-6-1.3-12.7-1.1-19
		c8.7,2.5,18,4.9,26.5,8c6.5-2.1,18.2-6.9,24.3-10.1c2.1,10.6,5.7,25.7-9.2,28c-0.3,0-0.6,0.1-0.9,0.1l1,0.5l0-0.6l0.5,0l0.1,0.8
		l3.2,0.9c-2.4,4.8-3.4,8.3-4.1,13.6c-0.4,2.8,0.1,3.9-1.8,5.9l0.7,0.8c1,1.5,1.3,2.2,0.6,4l0.4,0.9c15.1,45.8,13.9,57.8-3.4,103
		l-16.6,42.8c-11.5,29.3-25.7,63.9-25.1,95.7c0.2,9.6,2.5,17.3,5.4,26.3c-11.1,13.1-26.6,7.5-34.2-6
		c-0.3-33.8,34.4-100.6,49.6-132.8c6-12.6,11.5-25.4,16.6-38.3c4.2-10.8,10.4-27.1,11.7-38.4l-0.9-0.3c-3.2,19.7-13,39.6-21.3,57.7
		c-11,23.9-72.3,137.6-58.5,157.8c1.2,1.7,3.1,3.3,4.7,4.6c-16.8,6.6-33.2,4-40.3-14.2c-0.2-0.5-0.4-1.1-0.6-1.6
		c16.1-19.1,46.9-78.1,56.8-97.5l-19,31.7c-9,14.2-17.9,28.5-26.7,42.8c-2.4,3.8-12.8,22.2-16,23C855.3,398,849.5,382.3,847.2,373.6
		z"/>
	<path class="st3" d="M940.5,215.8c2.5-11.7,3.7-23.9,5.7-35.7c1.7-10.1,4.1-19.8,6.7-29.7c0.9-3.3,1.2-7.7,2.5-10.7
		c0.1-0.2,0.2-0.4,0.3-0.6c9.2,2.3,19.5,2.9,28.7,0.1c15.1,45.8,13.9,57.8-3.4,103l-16.6,42.8c-11.5,29.3-22.7,63.7-22.1,95.6
		c0.2,9.6,1.7,13.5,4.7,22.5c-11.6,20.6-28.8,11.4-36.4-2.1c-0.3-33.8,34.4-100.6,49.6-132.8c6-12.6,11.5-25.4,16.6-38.3
		c4.2-10.8,10.4-27.1,11.7-38.4c0.5-1.3,1-9,1.1-10.9l-0.9-0.6c0,0,0-0.1,0-0.1l0.9,0.1l-0.7-0.4l0.8,0l0-0.3l-0.2-0.1l0-0.4
		l-0.7-0.4l0-0.1l0.6-0.1l-0.6-0.3l0.1-0.7l-0.2,0.6l0.1,0.1l-0.1,0.4l-0.2,0l0.1,0.1l-0.1,0.4l0.7,0.4l0,0.3l-1-0.1l0.4,0.2l-0.2,0
		c0,0.1,0,0.2,0,0.3l-0.2,0l0.2,0.1c-0.3,3.7-0.7,7.5-1.2,11.2c-3.2,19.7-13,39.6-21.3,57.7c-11,23.9-72.3,137.6-58.5,157.8
		c1.2,1.7,3.1,3.3,4.7,4.6c-16.8,6.6-33.2,4-40.3-14.2c-0.2-0.5-0.4-1.1-0.6-1.6c11.8-18.1,29.4-46,39.3-65.4
		c3.4-5.7,15.4-27.1,17.5-32.2c-3.3,4.1-15.8,26.4-19,31.8c-9,14.2-17.9,28.5-26.7,42.8c-2.4,3.8-12.8,22.2-16,23
		c-11.4,2.7-17.1-13-19.5-21.7C881.2,339.9,930.6,262.5,940.5,215.8z"/>
	<path class="st1" d="M955.8,139l-0.3-0.5l1.2-0.7c15.6,2.4,14.3,0.7,27.4,0.4l0.4,0.9C975.3,141.9,965,141.3,955.8,139z"/>
	<polygon class="st2" points="989,178.2 989.7,178.6 989.7,179 988.9,178.6 	"/>
	<polygon class="st2" points="989.2,177 989.1,177.7 989,177.6 	"/>
	<polygon class="st2" points="989.7,178 989,178.1 989.1,177.7 	"/>
	<polygon class="st2" points="989,178.1 989,178.2 988.9,178.1 	"/>
	<polygon class="st2" points="989.7,179.2 989.7,179 989.8,179.1 989.8,179.4 989,179.4 988.7,179.2 	"/>
	<path class="st2" d="M989.7,180.4c-0.2,1.9-0.7,9.6-1.1,10.9l-0.9-0.3c0.5-3.7,0.9-7.4,1.2-11.2L989.7,180.4z"/>
	<path class="st2" d="M988.8,179.7c0,0,0,0.1,0,0.1l-0.2-0.1L988.8,179.7z"/>
	<path class="st2" d="M989,179.4l0.7,0.4l-0.9-0.1c0-0.1,0-0.2,0-0.3L989,179.4z"/>
	<path class="st4" d="M1198.1,128.5c-13.1,41.1-28.6,91.5-31.6,134.6c20.9-21.4,31.1,4.8,53.7,1.1c14.3-2.4,20.7-13.2,32.9-19.8
		c4.4,2.9,10.5,9.7,16.2,7.3c5.6-2.3,9.4-8.9,12.9-13.6c2.5-3.4,5.3-6.5,8.4-9.4c7-6.6,11.6-8.8,20.3-11.7
		c-7.2-9.4-15.4-17.8-23.1-26.7c-12.7-14.7-25-29.8-37-45.1c-4.3-5.5-13.2-16.4-16.1-22C1221.9,127.8,1212,130.7,1198.1,128.5z
		 M1282.4,212.5l-0.5-0.6l-2.3,0.5c0.4-2.3,0.5-3.3,1.6-5.4c2,0,3.4-0.2,5.1,0.8l-0.2,2l0.5,0.4c1.9-1,2.5-1.6,4.7-1.9
		c1.6,1.1,1.1,0.6,1.8,2.8c-0.7,2.2-0.8,1.9-3.1,3.5c1.5,1,1.7,1,2.3,2.6c-0.5,1.7,0,1-1.6,2l-1.1-0.5c-0.6,1.4-0.8,1.4-2.1,2.3
		c-2,0.3-1.3,0.4-2.9-0.5c-0.4-1-0.7-1.6-0.9-2.6l-0.1-0.7c-1.9,0.9-3.3,2-5.2,1C1275.9,213,1280.7,214.3,1282.4,212.5z
		 M1246.4,236.5c0.7-0.7,0.8-0.8,1.6-1.2l0.6-0.3c-0.4-0.8-1-1.3-1.6-2l0.1-1.1c1.9-1.7,2-1.5,4.5-2c1.1-0.5,1.1-0.4,2.3-0.3
		l-0.1,1.3l0.5,0.4l1.9-0.9c1.7,0.4,3,0.8,3.2,2.6c-0.8,1.5-1.5,1.8-3,2.7l-0.5,0.3c-0.2,0.9,0.3,1.5,0.7,2.6
		c-0.8,1.7-0.7,1.2-2.6,2.4c-0.7-0.6-1.4-1.2-2.1-1.8c-1.9,0.3-2.3,0.4-4.1-0.1C1246.5,237.5,1246.6,238.1,1246.4,236.5z
		 M1206.7,246.1c2-1.8,1.7-0.1,4-1.3c-1.8-1.2-3.3-1.8-3.2-4c1.3-1.4,3.1-0.6,5.2-2.8c1,0,1.7,0.1,2.7,0.2c0.4,1.5,0.5,1.5,1.3,2.9
		l1.6-1.5c2.8,1.1,4.9,1.4,5.4,4.7c-1.5,1.8-1.6,1-3.5,2c-2,1,1.1,1.5,0.1,5.1c-1.5,1.4-2.1,1.3-4.1,1.7c-1.7-1.9-0.3-1.8-1.7-3.4
		c-2,1.3-2.3,1.4-4.6,2C1207.1,251,1206.3,248.9,1206.7,246.1z M1184.2,242.1c-0.9,1.5-1.4,1.4-3.1,2.3l-1.4-1.2
		c-0.3-1.3-0.2-1.7-1.2-2.7c-1.5,0.4-2.2,0.5-3.8,0.6l-0.7-0.9c-0.5-2.7,1.1-5.3,2.2-7.8c0.5-1.3,2.2-1.4,3.5-1.7
		c1,1,1.3,1.5,1.9,2.8c2.2-0.5,3.7-0.9,5.6,0.1C1187.4,240.2,1182.2,234.1,1184.2,242.1z"/>
	<path class="st5" d="M1105.3,86.4c2.5,7.8,4.9,14.8,8,22.4c14.8,36.5,24.4,76.2,26,115.7c0.3,7.4,2,27.8-9.4,28c-1.9,0-4,0-5.8-0.8
		c-0.7-1.4,0.8-13.7,0.8-16.5c0.1-26.1-2.9-51.9-6.3-77.7c-0.3-2.4-1.7-13.4-2.5-14.7c0.3,10.4,1.7,22.4,2.5,32.9
		c1.1,13.3,1.9,26.7,2.4,40c0.4,9.2,0.9,19.7,0.2,28.8c-6.7-4.5-11.7-4.4-18.9-0.7c-2.4-32.2-1.8-64.8-4.1-97
		c-0.2-2.2-0.2-4.9-0.6-7l0-5.3c-0.3-4.5-0.6-8.6-1.3-13.1c0.2-2.1,0.5-4.6-0.4-6.4l-0.5,0.4c-0.4,2.4-0.1,3.5,0.4,5.9
		c0.1,3.5,0.2,7.4,0.6,10.8c0,3.7,0,8.6,0.2,12.2c0.5,16.7,0.9,33.4,1.1,50.1c0.1,10.5-0.3,49.3,4,57.3
		c-13.4,14.3-28.2,14.3-40.9-0.6c3.7-10.2,4.5-20.1,6.5-30.7c3.2-17.1,5.6-35,9.3-52c1-5,1.6-8.1,2.1-13.2
		c-1.1,3.9-2.2,7.8-3.2,11.8c-5.7,24.9-11,49.3-14.9,74.6c-6.5-1.8-7.7-2.7-13.8,1c1.8-39.7,14.9-81.3,25.6-119.4
		c0.6-2.2,1.7-3.7,1.3-6c-1.8,3.7-6,18.2-7.6,23c-9.6,28.4-24.7,80.4-22,109.2c-6.2-0.8-8.4-1.1-13.5-4.5
		c4.9-43.5,17.7-86.2,33.5-126.9c3.8-9.8,7.1-19.7,10.4-29.7c4.2,2.8,8.4,5.8,12.8,8.2c2,0,3.2,0.3,5.1,0.7
		C1097.1,93.9,1101.1,90.4,1105.3,86.4z"/>
	<path class="st1" d="M1105.6,85.7l-0.3,0.8c-4.2,4-8.2,7.4-13.1,10.6c-1.9-0.4-3.1-0.6-5.1-0.7c1.4-0.9,1.9-0.8,3.5-1.1
		c4.5-2.8,10-7.6,14.1-11.1L1105.6,85.7z"/>
	<path class="st1" d="M1076.4,168.4l-1.1-1.4c1-3.9,2.1-7.9,3.2-11.8C1078.1,160.2,1077.5,163.4,1076.4,168.4z"/>
	<path class="st1" d="M1097.6,134.4l0,5.3l-0.2,4.2l-0.9,0.3c-0.2-3.6-0.1-8.5-0.2-12.2L1097.6,134.4z"/>
	<path class="st2" d="M1095.8,121.2l0.6,0.1c0.6,4.5,0.9,8.6,1.3,13.1l-1.2-2.4C1096,128.6,1095.9,124.7,1095.8,121.2z"/>
	<path class="st3" d="M977.3,133.5c-7.4,0.5-14.7,0.1-22.1-0.3c-0.5-6.8-1.3-10.3-4.6-16.3c2.3-0.2,8-1,9.4-2.9
		c-4.1-2.2-12.1,3.2-15.6-8.6c-1.8-6-1.3-12.7-1.1-19c8.7,2.5,18,4.9,26.5,8c6.5-2.1,18.2-6.9,24.3-10.1c2.1,10.6,5.7,25.7-9.2,28
		c-0.3,0-0.6,0.1-0.9,0.1l1,0.5l0-0.6l0.5,0l0.1,0.8l3.2,0.9c-2.4,4.8-3.4,8.3-4.1,13.6c-0.4,2.8,0.1,3.9-1.8,5.9
		C981,133.1,979.2,133.4,977.3,133.5z"/>
	<path class="st1" d="M955.6,134.5l-0.6-0.6l0.3-0.7c7.4,0.4,14.7,0.8,22.1,0.3c1.8-0.1,3.6-0.4,5.4-0.1l0.7,0.8
		C974.1,135.9,965.1,135.9,955.6,134.5z"/>
	<path class="st4" d="M1213.3,78.4c7-7,12-12.2,18-20.1l3.8,4.1c-1.9,16.5-5.3,27.3-6.3,45.7c-11.1,3.7-19.3,4.8-30.8,2.6
		c-3.8-14-6.8-23.6-12.9-36.9c2.1-4.8,3.1-7.7,4.6-12.7C1197.6,66.9,1205.4,72.9,1213.3,78.4z"/>
	<path class="st3" d="M987.3,84.3c-5.6,2.6-11.4,5.5-17,8.3c-11.8-6.8-24.7-7.2-35-14.6c-4.5-3.2-11.2-15.3-5.7-20.6
		c2,1.3,4.9,6.2,6.9,8c9.5,8.2,22.4,15.3,34.7,17c10.8-4.1,15-9.3,20.7-18.8c3.7-0.7,7.9-1.1,11.6-1.6c-1.1,4.4-1.5,6-3.3,10.2
		C996.7,78.8,994.3,81.1,987.3,84.3z"/>
	<path class="st5" d="M1110,57.1c-1.9,5-2,6.2-3,10.9c-0.7,3.1-1.6,14.9-2.2,16.2c-4.2,3.5-9.7,8.4-14.1,11.1
		c-5.9-1.6-11.1-6.2-16-9.9c-0.9-10.9-2.4-15.1-6.6-24.9C1082.6,68.6,1098.3,70.7,1110,57.1z"/>
	<path class="st3" d="M1001.1,61.3c-2.9,0.5-5.8,0.9-8.7,1.3c1.5-3.2,2.4-6.4,3.4-9.8c3.4,1.2,8.5,2.4,8.6,6.6
		C1002.9,61.1,1003.6,60.6,1001.1,61.3z"/>
</g>
</svg>
