<?xml version="1.0" encoding="utf-8"?>
<!-- Generator: Adobe Illustrator 23.0.1, SVG Export Plug-In . SVG Version: 6.00 Build 0)  -->
<svg version="1.1" id="Layer_1" xmlns="http://www.w3.org/2000/svg" xmlns:xlink="http://www.w3.org/1999/xlink" x="0px" y="0px"
	 viewBox="0 0 1357 422" style="enable-background:new 0 0 1357 422;" xml:space="preserve">
<style type="text/css">
	.st0{fill:#49434D;}
	.st1{fill:#474747;}
	.st2{fill:#8E70F9;}
	.st3{fill:#756E6C;}
	.st4{fill:#C869F4;}
	.st5{fill:#F4A9FF;}
	.st6{fill:#E072F7;}
</style>
<g>
	<path class="st0" d="M511.6,228c24.5,10.5,46.3-5.5,61.1-22.7c14.4,29.4,37.1,19.2,54.1-1.3c2.6,5.2,10.9,19.4,18.2,14.8
		c4.7-8.6,8.2-19.4,13.7-27.4c16.1-23.2,43.6-51,68.3-64.4c-7.6,27-35.8,58.8-22.5,87.6c7.5,16.3,43.5,15.5,51,0.7l-0.2-1.6
		c-5.7-1.9-11.1,4.6-17,1.5c-10.8-5.6-10.2-22.4-6.8-32.2c6.8-19.8,20.4-37,26.8-56.8c2.9-8.9,1-21.9-9.1-25.6
		c-1.1-0.4-2.2-0.8-3.3-1.1c-30,0.4-60.4,35.7-78.4,56.8c5.5-11.7,18.2-31.8,21.3-42.6c0.9-3.3,1.2-6.8,0-10
		c-1.3-3.6-4.3-6.1-7.8-7.5c-2.4-1-6.2-2.3-8.6-1.2c-1.9,0.9-30.4,58.1-33.6,64.8c-3.4,7.2-7,14.5-9.2,22.1
		c-1.6,5.5-2.7,11-3.3,16.7c-5.2,5.6-17.5,21.8-26,13.8c-3-2.8-4.5-8.1-4-12.3c3.6-20.9,16.8-39.9,25-59.3c3.4-7.6,11.5-20,5.3-27.8
		c-4.3-5.4-17-5.8-21.4-0.2c-12.2,15.5-20.9,37.3-26.9,56c-2.9,9-3.4,17.2-7.4,25.6c-5.8,12.8-31.7,32.9-45.2,20.4
		c-3.7-3.5-4.8-11.9-4.2-16.8c2.8-22.4,19-57.3,31.1-75.6c11.1-0.1,31.4,2.7,35.5-10c-1.3-7.6-20.1-4.9-26.1-4.7
		c3.5-4,15.7-16,15.5-20c-11.1-15.9-35.1,11.4-42,20.3c-5.1,0.2-24.7,0.4-23.1,9.1c3,4,8.2,5.5,12.9,6.5
		c-8.8,14.5-16.6,30.3-23.3,45.8c-5.1,12-5.7,23.2-12.4,34.7c-9.3,16.1-46.4,24.6-50,1.8c-3.3-21.3,18-65.7,29.1-83.1
		c10.1-0.4,33,1.9,35.1-11.1c-2.7-6.7-18.4-4.1-24.5-3.7c4.1-5.3,14.3-14.9,15.1-19.5c-1.9-5.7-8.6-4.5-13.8-4.3
		c-12.8,4.4-20.2,14.2-28.7,24.3c-5.1,0.1-33-1.7-21.8,11.7c1.7,2,9.2,3.2,12.1,3.6c-7.5,13.5-15.4,27-21.1,41.3
		c-4.3,10.8-5.8,24.2-11.9,34c-4.1,6.6-10.9,13.7-18.5,15.8c-3,0.9-6.1,1-8.9-0.7c-2.5-1.5-4.1-4.2-4.7-7c-4.6-22.6,42.3-83.5,26-95
		c-2.5-1.8-6.7-2.2-9.6-1.5c-9.2,2.2-16.6,16.4-20.8,24.1c-9.9,18.2-24.8,52.2-18.5,73c1.8,5.8,5.3,10.8,10.8,13.7
		c7.2,3.8,17.4,3.7,25,1.2c9.4-3.1,16.6-10.1,22.9-17.4c11.4,35.8,52.3,31.2,75.5,9.3c2.5-2.3,4.7-4.8,6.9-7.4
		C498.5,216.3,502.5,224.1,511.6,228z"/>
	<path class="st0" d="M806.7,302.1c8.3-13.9,22.4-44.6-5.8-47.7c-12.1-1.3-39.4,24.5-48.1,34.4c-4.9,5.7-9.6,11.5-14.1,17.6
		c5.1-13.1,18.2-39.3-1.7-47.5c-5.6-2.3-13.2,0.4-18.2,3c-24.6,13.2-39.5,32.9-56.7,53.5c7.4-16.3,17.6-30.2,20.5-48.2
		c-3.7-8.3-8.3-13.2-18-13.3c-2.4,4.3-3.3,8.2-5.1,12.6c-12.6,30-32.4,56.8-38.6,89.3c-2.2,11.3,2,18.5,11.8,24.5
		c1.4,0.8,2.2,0.7,3.9,0.6c2.7-1.9,8.1-15.1,10.6-19c17.8-27.7,43.2-56.8,71.5-73.7c-3.6,12.2-6.5,16.6-11,28
		c-5.9,15.1-28.4,49.1-20.7,64.1c1.9,3.7,7.5,6.2,11.3,7.8c14.5-26.6,59.5-85.8,84.6-100.9c-4.7,18-12.6,28.2-18.8,44.9
		c-26.7,77,40.1,62.1,48.8,41.3l-0.6-0.9c-8.2,0.6-16.2,9-24.2,1.7c-7.9-7.2-4.3-21.8-0.7-31.4C793,328.6,798.5,315.9,806.7,302.1z"
		/>
	<path class="st0" d="M343.6,313.1c13.7-18.6,13.2-45.1-6.8-58.8c-15.6-10.6-38.6-9.8-56.6-8.9c-15.7,1.1-45.3,2.3-57.7,13.2
		c-7,6.2-7.2,30,7,29.1c3.1-3.6,4.2-9.6,6.4-12.8c6.8-10.5,22.7-14.9,33.9-15.9C259.6,276.2,209,378,212.6,392.3
		c1,3.7,3.9,6.6,7.2,8.4c6,3.1,13.2,3.5,19.9,3.5c1.1-19.3,9.2-45,16.7-63c7.3,1.7,10.4,1.9,15,8.1c15.4,23.2,25.7,51.6,55.3,60.1
		c17.4,5,31-15.5,24.1-26.8c-3.8,0.1-6.1,1.8-9.2,2.2c-25.7,2.7-40.3-26.1-55.1-42.6C308.7,338.5,329.8,332,343.6,313.1z
		 M325.6,292.4c-6.6,16.9-20.9,26-37.1,32.7c-10.3,3.6-16.6,4.8-27.4,6.4c9.7-22.2,21.3-48.1,33.3-69.2
		C311.9,263.4,335,268.6,325.6,292.4z"/>
	<path class="st0" d="M436.9,262c-84.1,8.6-111,123.6-24.7,121.9c22.8-2.9,44.2-12.8,57.8-31.6C497.5,314,496.5,257.4,436.9,262z
		 M452,342.8c-8.3,13-19.7,21.6-34.9,24.6c-36.5,4.7-31.2-38.4-16.8-58.1c11.7-16,19.2-23.7,38.6-28
		C478.4,278.3,465.1,322.3,452,342.8z"/>
	<path class="st0" d="M570.3,262c-23.7,2.3-45.6,13.9-60.7,32.3c-16.9,20.8-25.1,60.2-0.7,79.2c10.3,8,23.5,10.7,36.3,10.6
		c20.7-1,40.1-10.4,53.9-25.8C629.7,324.2,633.5,255.2,570.3,262z M546.7,367.7c-48.4-1.4-19.5-80.2,28.6-86.3
		C622,276.1,593.9,364,546.7,367.7z"/>
	<path class="st0" d="M237.4,148.6c2,0,3.1-0.8,4.6-1.9c3-5.4-1.8-12.5-2.1-18.7C238,90,262.7,82.5,294.2,80.2
		c-17.6,30.5-36.4,66.3-52.1,98c-9.8,20.5-30,51.8,11.5,48.2c2.9-0.2,4.1-14.4,5.2-17.5c5.5-15.1,11.7-29.9,18.1-44.6
		c19.1,4.1,43.5,6.1,61.4-3.3c6-3.1,15-18.9,5.8-21.5c-5.8,2.1-11.6,6.5-16.9,8.6c-12.4,4.9-31.1,2.7-44.4,1.2
		c8.6-19.9,22.7-51.7,34.3-70c34.2-2.7,70.3-6.1,94.7-33.3c6.5-7.2,16.2-31.6,6.9-38l-0.6,0.6c-3.9,4.1-6.3,8.8-9.8,12.9
		c-23,27-58,34.5-91.3,39.8c-35.4,5.6-101.9,1.5-99.6,53.7C218,126.1,222.6,148.7,237.4,148.6z"/>
	<path class="st0" d="M894.2,112.1c-0.8-20.8-27.7-26.8-45-24.1c-43.5,6.5-91.9,43.8-84.6,92.2c2,13.8,9.4,26.3,20.7,34.5
		c22.4,16.1,45.6,10.9,69.4,2.9c8.9,2.7,13.2,4.6,16.7-6.4c1.9-6.8,3.3-13.2,5.1-20.1c2.8-10.5,12.2-23.5,7.4-34.4
		c-2.1-4.9-9.8-4.6-14.2-3.5c-13,8.1-14.7,28.6-17.3,42.9c-8.1,6.8-18.6,10.1-29.1,9.1c-7.8-0.7-18.4-5.2-22.7-11.6
		c-28.5-42.6,26.2-104.2,72.9-84.4c4.6,1.9,9.7,11.6,12.9,15.3C891.9,128.2,895.6,116.1,894.2,112.1z"/>
	<path class="st0" d="M633.9,90.4c7.9-2.5,12.3-11,9.7-18.9c-2.6-7.9-11.1-12.2-19-9.6c-7.8,2.6-12.1,11-9.5,18.8
		C617.7,88.6,626.1,92.9,633.9,90.4z"/>
	<path class="st0" d="M407.4,64.1c-5.2,1.1-9.3,4.8-10.9,9.9c-1.5,5-0.2,10.5,3.5,14.3c3.7,3.8,9.2,5.2,14.2,3.8
		c7.4-2.1,11.8-9.7,10-17.3C422.5,67.3,415,62.6,407.4,64.1z"/>
</g>
<g>
	<path class="st1" d="M961.4,377.3 M956.8,387.5 M961.4,377.3c-13.7-41.1,20.5-95,32-133.7c4.3-14.3,10.4-28.4,12-43.3
		c0.8-7.2,0.5-14.5-1.1-21.6c-3.5-16.1-14.6-35.3-6.6-51.6c1.2-2.5,4-5.3,5.7-7.6c4.9-6.5,2-16.4,0.4-23.7c2.3-3.4,4.9-7.3,7-10.8
		c8.1,1.2,14.2,1.1,13.5-8.6c2.5-1.9,11.8-2.1,15.5-2.3c-9.9,10.8-12.5,18.4,6.3,17c9.1-0.7,15.4-2.8,23.8-6.2
		c0.8,3.5,3,11.7,2.4,14.7c-2,8.8-6.5,18-10.1,26.4c-3.4,7.8-6.5,15.7-9.5,23.7c-10.5,28.6-19.6,64.8-22,95.2
		c-0.5,6.8,14.9,8.1,20.1,7.1c0-4.2-0.2-8.6,6.4-7.9c0.9,0.1,3.3,1.1,3.9,1.8c-0.5,2-1,3.6-1.6,5.6c10.3,14.5,23.1,16.9,38.8,7.3
		c7.8-4.8,1.4-15.6,15-13.5c8.5,1.2-0.1,9.4,9.5,10.5c11.8,1.3,15.6-5.3,16.7-16.3c4.5-43.3-9.3-90.1-27.8-128.9
		c-5.8-12.2-5.4-15.1-2.7-27.7c17.7,3,52.6-4,18.7-20.3c16.2-3.8,16.3-4.3,32.5-4.3c-3.1,1.9-7,3.7-10.3,5.3l30-7.1
		c0.9,16.8,1.1,16.7-5.3,32.2c4,9.9,12.7,30.7,14.5,40.8c-19.5,47.2-32.2,93.7-30.4,145.3c8.3-10.6,15.5-12.1,28.1-7
		c17.7,7.3,42.1,9,55.2-7.6c0.4-0.5,0.8-1.1,1.2-1.6c10.6,10,19.4,7.6,28.5-3.1c14.1-16.5,23.1-28.3,46.6-28.2
		c-18.1-24.2-40.6-47.2-61.3-69.2c-4.5-4.9-9.2-9.7-13.9-14.4c-8.1-8.1-11.1-10.8-17.3-20.6c0.1-10.2,3.8-34.2,6.1-43.7
		c-6.3-5.7-10.1-9-10.5-18.2c-0.1-2.5-0.1-5-0.2-7.5c6.9-0.1,18.3,0.1,24.6-0.4c-16.6-3.2-40.7-5.9-51.4-20.5
		c-3.4-4.7-5.7-14.8,3.6-11.7c4,1.3,4.1,4.7,5,8.3l0.6,0.1c1.9-3,1.1-8.5-2.3-10.2c-2.8-1.4-4.7-1.3-7.7-1
		c-11.5,5.7-3.2,15.5,2.7,22.1l-0.7,0.1c-8.5,0.9-18.9,9.1-26.9,12.2c-8.3,3-17.9,1.6-26.6,2.9c-3.9,0.6-17.2,5.1-19.6,4.4
		c-12.2-3.7-24.8-7.5-37.5-9.4l-0.4-0.4c-3.5-3.7-9.7-12.1-10-17.4c-0.2-3.5,4-5.2,6.9-4.8c5.5,0.4,5.7,4.1,6.6,8.6l0.9,0
		c6.8-10-12.2-16-16.8-7.6c-3.6,6.5,5.5,16.9,9.2,22.1c-10.5,5.3-21,10.7-31.4,16.3c-1.7,0.9-3.5,1.8-5.4,2.3
		c-8.7,1.3-16.9,1.6-25.6,3.6c-15-9.8-24-9.7-41.1-14.1c-4-4.3-13.1-13.8-12.9-19.3c0.2-6.8,12.2-7.3,11.5,3
		c1.2,0.4,0.6,0.4,1.8,0.2c2.3-2.7-1.2-9-3.7-10.2c-7.3-3.7-15.8,2.8-12.3,10.8c2.7,6.1,7.1,11.7,11.6,16.2
		c-15.1,0.9-28.3,6.8-40.9,14.8c-4,2.5-15,6.1-14.7,12.1c2.7,5.1,16.8,3.4,21.9,2.9c3.6,5.2,4.8,6.3,10.7,8.8
		c-2,13.8-2.9,17.2,5.5,28.3c11.1,14.7,0,37.6-3,53.2c-2.8,15.4-3.1,30.7-7.7,45.7c-13.6,39-55.9,98.2-84,126.3
		c1.8,10.9,8.7,29.8,23.2,25.2c8.6,19.3,25.9,22.2,43.8,13.1c11.9,5.5,17.7,6.2,28-2.5C956.8,387.5,962.7,381.3,961.4,377.3z
		 M1220,68.9c-5.5,5.7-10,10.7-15.8,16.3l-5.3-3c-5.3-3.1-11.1-6.8-16.3-10.1c-0.5-5.4-0.8-10.4-1.8-15.8c8.8-0.7,17.6-1.4,26.4-2
		c2.1-0.3,9.7-0.3,12.1-0.3C1219.1,58.4,1219.4,64.6,1220,68.9z M1226.4,128.5l-0.4,0.8c-6.4,5-25.8,6.8-34.2,6.7
		c-0.9,0-0.7-0.1-1.6-0.4l-0.1-1.6c1.4-3.1,1.4-1.7,5.3-1.3c10.1,1,20-1.8,28.7-6.6l0.5,0C1225.7,127.1,1225.7,127.1,1226.4,128.5z
		 M1223.4,122c-2.7,7.9-26.9,8-32,7.5l-0.7-5.8c11.2,2.6,22.2,1,32-5C1223.3,119.4,1223.6,121.3,1223.4,122z M1190.1,138
		c12.9,2,22.1-0.7,33.9-5l3.8-2.2l80.8,93.1c-15.1,2-24.3,9.3-33.7,20.7c-12.5,15.3-18.4,22.7-33.6,5.4
		c-4.4,19.6-29.5,21.3-45.6,17.5c-13.9-3.3-22.8-9.5-35.3,1.3c0.1-1.4,0.2-5,0.4-6.2C1163.6,222.8,1178,176.1,1190.1,138z
		 M1182.4,75.4c7.2,5.4,14.4,11,21.8,16.1c6.5-6.5,11.1-11.3,16.7-18.6l3.5,3.8l4.4,3c-1.4,6.7-2.6,13.5-3.5,20.3
		c-0.4,2.8-1.3,15.6-2.6,17.3c-1.7,0.9-2.3,1.1-4.1,1.7c-10.2,3.5-17.9,4.4-28.5,2.4c-3.5-13-6.3-21.8-12-34.2
		C1180,82.8,1181,80.1,1182.4,75.4z M1062.9,69.6l-7.2,0.3c-1.3,0-1.3,0.1-2.6-0.3c0.7-1.3,4.7-3.1,6.3-4
		C1060.7,66.3,1061.9,68.2,1062.9,69.6z M1110.9,62.1c-1.8,1.9-16.9,4.7-20.3,5.4c-8.3,1.6-15.3,1.8-23.7,2.3l-4.4-5.7
		c6.8-3.7,13.7-7.2,20.6-10.6c7,0.9,14.4,2.9,21.4,4.4C1106.7,58.4,1111.1,59.3,1110.9,62.1z M1109.6,79.7c1-4.4,2.7-9.6,4-14
		l5.4-1.7c4.8-0.7,19.2,4.7,18.3,11.5c-1.9,2.9-4.3,3.1-7.7,3.9C1122.8,81.1,1116.4,80.7,1109.6,79.7z M1108.5,70.6
		c-9.5,8.5-22.1,9-33.7,4.7c-2.2-1.1-4.7-2.4-6.9-3.5c17.5,0.3,23.9-0.3,41.1-5.6l0.5,0.1C1109.9,67.6,1109.1,69.2,1108.5,70.6z
		 M1069.7,75c13.5,7.4,28,9.4,38.9-3.2c-1.7,4.6-1.8,5.7-2.8,10.1c-0.6,2.9-1.5,13.8-2.1,15l0.8,1.3l-0.3,0.7
		c2.3,7.2,4.5,13.7,7.4,20.7c13.7,33.8,22.6,70.6,24.1,107.2c0.3,6.9,1.9,25.8-8.7,25.9c-1.8,0-3.7,0-5.4-0.8
		c-0.6-1.3,0.7-12.7,0.7-15.3c0.1-24.2-2.7-48-5.9-72c-0.3-2.2-1.5-12.4-2.3-13.7c0.3,9.6,1.5,20.8,2.3,30.5
		c1,12.3,1.7,24.7,2.3,37.1c0.4,8.5,0.8,18.2,0.2,26.6c-6.2-4.2-10.8-4.1-17.5-0.6c-2.2-29.8-1.6-60-3.8-89.9
		c-0.1-2-0.2-4.5-0.6-6.5l-0.2,3.9l-0.8,0.3c0.5,15.5,0.8,30.9,1,46.4c0.1,9.7-0.3,45.7,3.7,53.1c-12.4,13.3-26.1,13.2-37.9-0.5
		c3.5-9.5,4.2-18.6,6-28.5c3-15.8,5.2-32.5,8.6-48.1l-1-1.3c-5.2,23.1-10.2,45.6-13.8,69.1c-6-1.7-7.1-2.5-12.8,0.9
		c1.7-36.7,13.8-75.3,23.7-110.6c0.6-2,1.6-3.4,1.2-5.6c-1.7,3.4-5.6,16.8-7.1,21.3c-8.9,26.3-22.9,74.5-20.4,101.2
		c-5.7-0.7-7.7-1.1-12.5-4.1c4.6-40.3,16.4-79.9,31-117.5c3.5-9,6.6-18.3,9.6-27.5c3.9,2.6,7.8,5.3,11.8,7.6c1.3-0.8,1.7-0.8,3.3-1
		c-5.4-1.5-10.3-5.8-14.8-9.1C1075,88,1073.5,84.2,1069.7,75z M1045.1,73c3-0.6,7.6-0.8,10.8-1c2.6-0.2,6.2-0.3,8.9-0.4
		c1.9,3.7,3.1,6.5,4.6,10.3c-6.4,3-12.3,4.6-19.2,5.7C1033.4,89.6,1033.1,83.4,1045.1,73z M1015.8,77.2c2.1-0.1,3.2-0.5,4.8,0.7
		c1,1.7,0.9,1,0.5,2.8c-1.2,1.5-1.9,1.6-3.7,2.3c-2.1,0.6-3.1,1.1-4.9,0C1011.6,80,1013.2,78.3,1015.8,77.2z M939,86.5
		c-4.4,0.3-8.1,0.3-12.6,0.3c-1.9-0.2-3.4-0.1-3.9-2c1.7-2.8,9.4-5.7,12.6-7.2C935.7,78,938.4,85,939,86.5z M999.2,67.6
		c-0.8,3.3-1.7,5.5-2.9,8.7l-25.7,2.9c-5,0.6-10,1.3-15.1,2.1c-4.7-3.6-6.2-5.2-9.4-10.2c9.2-4.5,18.2-7,28.2-8.4
		C979.1,62,994,66.3,999.2,67.6z M989.7,80.9c1.1-0.2,2.1-0.2,3.2-0.2l0.1,0.5c-2.3,3.5-7.5,8.9-11.6,10.3c-5.2,1.7-9.5-0.8-14.1-3
		l-7.6-4C968.6,82.9,980.7,81.9,989.7,80.9z M1010.7,74c-1.5,1.6-0.7,1.1-3.1,1.7c-2.7,0.5-5.4,0.9-8,1.2c1.4-3,2.2-5.9,3.2-9.1
		C1005.9,68.9,1010.7,70.1,1010.7,74z M994.8,97.1c-5.2,2.4-10.6,5.1-15.7,7.7c-11-6.3-22.8-6.6-32.4-13.6
		c-4.2-3-10.4-14.2-5.3-19.1c1.9,1.2,4.5,5.8,6.4,7.4c8.8,7.6,20.7,14.1,32.1,15.7c10-3.8,13.9-8.6,19.2-17.4
		c3.4-0.7,7.3-1,10.8-1.5c-1,4-1.4,5.5-3.1,9.4C1003.5,92,1001.3,94,994.8,97.1z M865.1,352.9c31.5-31.2,77.3-90.8,86.5-134.1
		c2.3-10.9,3.5-22.1,5.3-33.1c1.6-9.4,3.8-18.4,6.2-27.5c0.8-3.1,1.1-7.2,2.3-10c0.1-0.2,0.2-0.4,0.3-0.6l-0.3-0.4l1.2-0.6l-1-0.5
		c-0.6-1.4-0.5-0.9,0-2.6l-0.6-0.5l0.3-0.7c-0.4-6.3-1.2-9.6-4.3-15.1c2.1-0.2,7.4-0.9,8.7-2.7c-3.8-2.1-11.2,3-14.5-8
		c-1.7-5.5-1.2-11.8-1-17.6c8.1,2.3,16.7,4.5,24.5,7.4c6-1.9,16.8-6.4,22.5-9.4c1.9,9.8,5.3,23.8-8.5,25.9c-0.3,0-0.5,0.1-0.8,0.1
		l1,0.4l0-0.5l0.4,0l0.1,0.7l3,0.8c-2.3,4.5-3.1,7.6-3.8,12.6c-0.4,2.6,0.1,3.6-1.7,5.4l0.7,0.7c1,1.4,1.2,2.1,0.6,3.7l0.3,0.9
		c14,42.5,12.9,53.5-3.1,95.4l-15.4,39.6c-10.7,27.2-23.8,47.1-23.3,76.6c0.2,8.9,2.3,16,5,24.4c-10.3,12.2-24.6,6.9-31.7-5.6
		c-0.3-31.3,31.9-81.2,46-111c5.5-11.7,10.7-23.5,15.4-35.5c3.9-10,9.6-25.1,10.8-35.6l-0.9-0.3c-3,18.2-12,36.7-19.7,53.4
		c-10.2,22.2-67,115.5-54.2,134.2c1.1,1.6,2.8,3,4.4,4.3c-15.6,6.1-30.7,3.7-37.3-13.2c-0.2-0.5-0.4-1-0.6-1.5
		c5.8-6.8,21.7-23,30-34.6c13.3-18.4,35.1-65.8,40.8-76.9l-37.1,59.3c-8.3,13.2-15.3,17.6-23.5,30.9c-2.2,3.5-11.9,20.6-14.8,21.3
		C872.6,375.5,867.2,361,865.1,352.9z"/>
	<path class="st2" d="M951.5,218.8c2.3-10.9,3.5-22.1,5.3-33.1c1.6-9.4,3.8-18.4,6.2-27.5c0.8-3.1,1.1-7.2,2.3-10
		c0.1-0.2,0.2-0.4,0.3-0.6c8.6,2.1,18.1,2.7,26.6,0.1c14,42.5,12.9,53.5-3.1,95.4l-15.4,39.6c-10.7,27.2-21,47-20.5,76.5
		c0.2,8.9,1.6,12.5,4.3,20.8c-10.8,19.1-26.7,10.5-33.8-1.9c-0.3-31.3,31.9-81.2,46-111c5.5-11.7,10.7-23.5,15.4-35.5
		c3.9-10,9.6-25.1,10.8-35.6c0.4-1.2,0.9-8.4,1.1-10.1l-0.8-0.5c0,0,0-0.1,0-0.1l0.8,0.1l-0.6-0.4l0.8,0l0-0.3l-0.1-0.1l0-0.3
		l-0.6-0.4l0-0.1l0.6-0.1l-0.5-0.3l0.1-0.6l-0.2,0.6l0.1,0.1l-0.1,0.4l-0.1,0l0.1,0.1l-0.1,0.3l0.7,0.4l0,0.2l-1-0.1l0.3,0.2l-0.2,0
		c0,0.1,0,0.2,0,0.3l-0.2,0l0.2,0.1c-0.3,3.5-0.7,6.9-1.1,10.3c-3,18.2-12,36.7-19.7,53.4c-10.2,22.2-67,115.5-54.2,134.2
		c1.1,1.6,2.8,3,4.4,4.3c-15.6,6.1-30.7,3.7-37.3-13.2c-0.2-0.5-0.4-1-0.6-1.5c11.5-25.3,27.3-30.5,36.5-48.5
		c3.2-5.3,28.6-51.8,30.6-56.5c-3,3.8-29.5,49.6-32.4,54.7c-8.3,13.2-16.2,15.7-24.4,29c-2.2,3.5-11.9,20.6-14.8,21.3
		c-10.5,2.5-15.9-12.1-18-20.1C896.6,321.7,942.3,262.1,951.5,218.8z"/>
	<path class="st1" d="M965.7,147.7l-0.3-0.4l1.2-0.6c14.5,2.2,13.2,0.7,25.4,0.3l0.3,0.9C983.8,150.4,974.2,149.8,965.7,147.7z"/>
	<polygon class="st3" points="996.5,184 997.1,184.4 997.1,184.7 996.4,184.3 	"/>
	<polygon class="st3" points="996.7,182.9 996.5,183.5 996.5,183.4 	"/>
	<polygon class="st3" points="997.1,183.8 996.5,183.9 996.5,183.5 	"/>
	<polygon class="st3" points="996.5,183.9 996.5,184 996.3,183.9 	"/>
	<polygon class="st3" points="997.1,184.9 997.1,184.7 997.2,184.8 997.2,185.1 996.5,185.1 996.1,184.9 	"/>
	<path class="st3" d="M997,186c-0.1,1.8-0.6,8.9-1.1,10.1l-0.9-0.3c0.5-3.4,0.8-6.9,1.1-10.3L997,186z"/>
	<path class="st3" d="M996.2,185.4c0,0,0,0.1,0,0.1l-0.2-0.1L996.2,185.4z"/>
	<path class="st3" d="M996.5,185.1l0.6,0.4l-0.8-0.1c0-0.1,0-0.2,0-0.3L996.5,185.1z"/>
	<path class="st4" d="M1190.1,138c-12.1,38.1-26.5,84.8-29.3,124.6c19.4-19.8,28.8,4.5,49.7,1c13.3-2.2,19.2-12.3,30.4-18.3
		c4.1,2.7,9.7,9,15,6.8c5.2-2.1,8.7-8.3,11.9-12.6c2.3-3.1,4.9-6,7.7-8.7c6.5-6.1,10.7-8.1,18.8-10.9c-6.6-8.7-14.3-16.4-21.4-24.7
		c-11.8-13.6-23.2-27.6-34.3-41.8c-3.9-5.1-12.2-15.2-14.9-20.4C1212.2,137.3,1203,140,1190.1,138z M1268.2,215.8l-0.4-0.6l-2.1,0.4
		c0.4-2.2,0.5-3,1.5-5c1.9,0,3.1-0.2,4.8,0.7l-0.2,1.8l0.5,0.4c1.7-1,2.3-1.5,4.3-1.7c1.5,1,1,0.5,1.7,2.6c-0.6,2.1-0.7,1.8-2.9,3.2
		c1.4,0.9,1.6,0.9,2.1,2.4c-0.5,1.6,0,0.9-1.5,1.8l-1-0.5c-0.5,1.3-0.7,1.3-1.9,2.2c-1.8,0.2-1.2,0.4-2.7-0.4
		c-0.4-0.9-0.6-1.5-0.8-2.4l-0.1-0.6c-1.7,0.9-3.1,1.9-4.9,1C1262.2,216.2,1266.6,217.4,1268.2,215.8z M1234.9,238
		c0.6-0.6,0.7-0.7,1.5-1.1l0.6-0.3c-0.3-0.8-0.9-1.2-1.5-1.9l0-1.1c1.8-1.6,1.8-1.4,4.2-1.9c1-0.5,1-0.4,2.1-0.3l0,1.2l0.4,0.4
		l1.8-0.8c1.6,0.4,2.8,0.7,3,2.4c-0.8,1.4-1.4,1.7-2.7,2.5l-0.5,0.3c-0.2,0.9,0.3,1.4,0.7,2.4c-0.7,1.5-0.7,1.1-2.4,2.2
		c-0.6-0.6-1.3-1.1-1.9-1.7c-1.8,0.2-2.1,0.4-3.8-0.1C1235,239,1235.1,239.4,1234.9,238z M1198.1,246.9c1.8-1.6,1.6-0.1,3.7-1.2
		c-1.6-1.1-3.1-1.7-3-3.7c1.2-1.3,2.9-0.6,4.9-2.6c0.9,0,1.6,0.1,2.5,0.2c0.4,1.4,0.4,1.4,1.2,2.7l1.5-1.4c2.6,1,4.6,1.3,5,4.3
		c-1.4,1.7-1.5,1-3.3,1.9c-1.8,0.9,1,1.4,0.1,4.7c-1.3,1.3-1.9,1.2-3.8,1.6c-1.6-1.8-0.3-1.6-1.6-3.2c-1.8,1.2-2.1,1.3-4.2,1.8
		C1198.4,251.4,1197.7,249.5,1198.1,246.9z M1177.2,243.1c-0.8,1.4-1.3,1.3-2.9,2.1l-1.3-1.1c-0.2-1.2-0.2-1.6-1.1-2.5
		c-1.4,0.3-2.1,0.5-3.5,0.6l-0.7-0.9c-0.4-2.5,1-4.9,2-7.3c0.5-1.2,2-1.3,3.2-1.6c0.9,0.9,1.2,1.3,1.7,2.6c2.1-0.5,3.4-0.8,5.2,0.1
		C1180.2,241.4,1175.4,235.8,1177.2,243.1z"/>
	<path class="st5" d="M1104.1,99c2.3,7.2,4.5,13.7,7.4,20.7c13.7,33.8,22.6,70.6,24.1,107.2c0.3,6.9,1.9,25.8-8.7,25.9
		c-1.8,0-3.7,0-5.4-0.8c-0.6-1.3,0.7-12.7,0.7-15.3c0.1-24.2-2.7-48-5.9-72c-0.3-2.2-1.5-12.4-2.3-13.7c0.3,9.6,1.5,20.8,2.3,30.5
		c1,12.3,1.7,24.7,2.3,37.1c0.4,8.5,0.8,18.2,0.2,26.6c-6.2-4.2-10.8-4.1-17.5-0.6c-2.2-29.8-1.6-60-3.8-89.9
		c-0.1-2-0.2-4.5-0.6-6.5l0-4.9c-0.3-4.2-0.6-8-1.2-12.2c0.1-1.9,0.4-4.2-0.4-5.9l-0.5,0.3c-0.4,2.3-0.1,3.3,0.3,5.5
		c0.1,3.2,0.2,6.8,0.6,10c0,3.5,0,8,0.1,11.3c0.5,15.5,0.8,30.9,1,46.4c0.1,9.7-0.3,45.7,3.7,53.1c-12.4,13.3-26.1,13.2-37.9-0.5
		c3.5-9.5,4.2-18.6,6-28.5c3-15.8,5.2-32.5,8.6-48.1c1-4.6,1.5-7.5,2-12.2c-1.1,3.6-2,7.3-3,10.9c-5.2,23.1-10.2,45.6-13.8,69.1
		c-6-1.7-7.1-2.5-12.8,0.9c1.7-36.7,13.8-75.3,23.7-110.6c0.6-2,1.6-3.4,1.2-5.6c-1.7,3.4-5.6,16.8-7.1,21.3
		c-8.9,26.3-22.9,74.5-20.4,101.2c-5.7-0.7-7.7-1.1-12.5-4.1c4.6-40.3,16.4-79.9,31-117.5c3.5-9,6.6-18.3,9.6-27.5
		c3.9,2.6,7.8,5.3,11.8,7.6c1.8,0,3,0.3,4.7,0.6C1096.6,105.9,1100.2,102.7,1104.1,99z"/>
	<path class="st1" d="M1104.4,98.3l-0.3,0.7c-3.9,3.7-7.6,6.9-12.1,9.9c-1.8-0.3-2.9-0.6-4.7-0.6c1.3-0.8,1.7-0.8,3.3-1
		c4.2-2.5,9.2-7,13.1-10.3L1104.4,98.3z"/>
	<path class="st1" d="M1077.4,174.9l-1-1.3c0.9-3.7,1.9-7.3,3-10.9C1079,167.3,1078.4,170.3,1077.4,174.9z"/>
	<path class="st1" d="M1097.1,143.5l0,4.9l-0.2,3.9l-0.8,0.3c-0.2-3.4-0.1-7.9-0.1-11.3L1097.1,143.5z"/>
	<path class="st3" d="M1095.4,131.2l0.5,0.1c0.6,4.2,0.9,8,1.2,12.2l-1.1-2.2C1095.5,138,1095.5,134.4,1095.4,131.2z"/>
	<path class="st2" d="M985.6,142.6c-6.9,0.4-13.6,0.1-20.5-0.3c-0.4-6.3-1.2-9.6-4.3-15.1c2.1-0.2,7.4-0.9,8.7-2.7
		c-3.8-2.1-11.2,3-14.5-8c-1.7-5.5-1.2-11.8-1-17.6c8.1,2.3,16.7,4.5,24.5,7.4c6-1.9,16.8-6.4,22.5-9.4c1.9,9.8,5.3,23.8-8.5,25.9
		c-0.3,0-0.5,0.1-0.8,0.1l1,0.4l0-0.5l0.4,0l0.1,0.7l3,0.8c-2.3,4.5-3.1,7.6-3.8,12.6c-0.4,2.6,0.1,3.6-1.7,5.4
		C989,142.2,987.3,142.5,985.6,142.6z"/>
	<path class="st1" d="M965.5,143.5l-0.6-0.5l0.3-0.7c6.9,0.4,13.6,0.7,20.5,0.3c1.7-0.1,3.4-0.4,5-0.1l0.7,0.7
		C982.6,144.8,974.3,144.8,965.5,143.5z"/>
	<path class="st4" d="M1204.3,91.6c6.5-6.5,11.1-11.3,16.7-18.6l3.5,3.8c-1.8,15.3-4.9,25.3-5.8,42.3c-10.2,3.5-17.9,4.4-28.5,2.4
		c-3.5-13-6.3-21.8-12-34.2c1.9-4.4,2.9-7.2,4.3-11.8C1189.6,80.9,1196.9,86.4,1204.3,91.6z"/>
	<path class="st2" d="M994.8,97.1c-5.2,2.4-10.6,5.1-15.7,7.7c-11-6.3-22.8-6.6-32.4-13.6c-4.2-3-10.4-14.2-5.3-19.1
		c1.9,1.2,4.5,5.8,6.4,7.4c8.8,7.6,20.7,14.1,32.1,15.7c10-3.8,13.9-8.6,19.2-17.4c3.4-0.7,7.3-1,10.8-1.5c-1,4-1.4,5.5-3.1,9.4
		C1003.5,92,1001.3,94,994.8,97.1z"/>
	<path class="st5" d="M1108.5,71.9c-1.7,4.6-1.8,5.7-2.8,10.1c-0.6,2.9-1.5,13.8-2.1,15c-3.9,3.3-8.9,7.7-13.1,10.3
		c-5.4-1.5-10.3-5.8-14.8-9.1c-0.8-10.1-2.2-13.9-6.1-23.1C1083.1,82.4,1097.7,84.4,1108.5,71.9z"/>
	<path class="st2" d="M1007.7,75.7c-2.7,0.5-5.4,0.9-8,1.2c1.4-3,2.2-5.9,3.2-9.1c3.1,1.1,7.9,2.2,7.9,6.1
		C1009.3,75.6,1010,75.1,1007.7,75.7z"/>
</g>
<g>
	<polygon class="st6" points="77,122 87,149 101,151 104,140 105,130 112,122 118.3,114.1 114.5,103.6 105,99 105,104 	"/>
	<g>
		<path class="st6" d="M65,170.1c-20.4,22-38.5,46.1-54,71.8c-2.2,3.6-7,11.5-8.5,15.3c8.5,12.6,15,18.4,28.3,26.1
			c4.2-28.6,16-57,31.4-81.4c0.6-0.9,1.7-2.8,2.6-3.4l0.1,0.3c-3.1,5.9-5.9,10.5-8.9,16.8c-9,19.1-14.5,38.7-19.2,59.1
			c19.8,8.3,45.6,17.5,67.3,9.4c10.3-3.7,16.2-12.6,26.7-15.3c2-0.6,4.8,0.2,6.6-0.1c-5.4-10.1-11-23.1-15.3-33.6
			c-6.9-16.7-14-34.4-18.5-51.9c-1.7-6.6-3.5-20.7-2.1-27.5c-6.6-0.4-12.7-1.3-18.9-3.8C76.3,157.5,70.6,164,65,170.1z"/>
		<path class="st0" d="M160.4,81.1c-12.7,0.2-12.7,0.2-17.8,5.6c-7.9,8.2-14.2,17.6-21.8,26c-0.9,1-1.9,2.1-2.7,3.3
			c2.6-13.5-10.5-15.2-16.8-24.6c-3.5-5.2-10.8-7.7-16.7-8.9c-5.5-1-9.6-0.5-14.2,2.4c-5.1,11.4-1.5,23.2,2.9,34.2
			c3.6,9,7.3,18.1,11.5,26.8c-7.1,7-14.2,12.1-21.5,19.6C41.7,187.8,23.3,213,8.7,240.4c-2.4,4.7-6.8,12.8-8.4,17.8
			c5.5,15.2,19.4,25.4,33.9,30.9l1.9-11.9c8.9,5,16.7,8.2,26.6,10.5c-1.3,7.7-6.1,19.5-6.5,24.6c-1.5,18.3,7.5,43.4,10.3,61.6
			c0.7,3.1,0.9,6.2,1.3,9.3c-3,5.1-5.5,8.5-4.3,14.7c0.9,4.5,8.5,14.8,8.2,18.7c0.3,0.7,0.3,0.7,0.9,1.2l0.6-0.1
			c1.3-2,0.7-8.6,0.5-11.2c3.6,4.7,5.7,11.1,11.8,11.8c3.5,0.6,13.2,1.7,15.9-1.2c6.2-6.6-3.4-8.4-7.3-8.5
			c-7.6,6.4-20.4-8.9-25-14.1l0.1-0.2c6.3,3.4,14.6,18.5,23.4,14.5c-4-3.3-16.8-24.7-17.4-29.6c-3.1-27.2-1-62.2,7.1-88.2
			c8.3,0.5,12.1-0.2,20.1-2.1c-14.2,16.6-17.6,20.4-23,42.7c-1,4.3-3.7,9.7-4.1,14.5c-0.7,8.4,0,16.9-0.3,25.2
			c2.3-4.5,4.3-9.6,6.8-14.3c7.2-14,14.9-27.5,23.3-40.8c2.7-4.2,5.5-8.3,8.4-12.4c4.1-5.6,10.7-11,11.2-18.4c0.2-3,0-6.6-0.2-9.7
			c3-2.3,4.8-3.6,8.3-5.1c2.9-1.3,3.9-0.1,5.4-0.4c0,0,0,0,0,0v0c0.2,0,0.4-0.1,0.6-0.2l-0.8-1.3l0,0c-4.4-9.7-10-25.3-13.8-35.2
			c-6.5-17.5-13.3-36.4-17.6-54.5c-2-8.5-4.2-30.3,0.7-37.8c-1-1.2-1.9-1.7-3.1-2.8c-1,2.8-1.7,7.7-2.7,9.6
			c-4.8-0.6-8.8-1.2-13.7-2.1c-1.7-6.8-6.3-17.7-8.9-24.6c2.2-1.1,3.7-3.3,6.2-4.1c-0.9-1.4-2.4-1.3-3.7-2.4
			c-6.2-5.4-11.9-11.7-9.9-20.6c1.4-6.2,7.1-8.9,13.1-7.3c9.7,2.4,13.1,11,17.6,18.7c3-1.3,4.9-2,8-3.3c0.3,0.3,1.7,1.9,2.1,2.3
			c3.7,5.5,6.6,11.3,0.2,17.1c2.4,3.4,4.8,6.9,6.8,10.5c7.6-7.3,9.8-11.2,14.1-21c1.4-3.4,3.6-8.2,6.1-11c3.7,0.4,5.3,0.9,8.5-0.2
			c-0.4,1.3-0.9,3.6-1.6,4.8c-6.5,11.1-19.4,20.3-27.3,29.6c-4.5-8-10.5-15.4-15.7-23.2c-4.3-6.1-7.2-13.2-11.8-19
			c-1.9-2-5-3.6-7.5-4.3c-5.2-1.5-10.6,0.9-11.8,6.5c-1.9,8.9,5.7,16.1,11.4,21.7l4.4,4.4c6.9,7,13.8,13.9,20.5,21
			c3,3.3,6.9,8.3,9.8,11.1c9.6-8.6,15.3-16.4,21.9-27.5c3.3-5.5,6.2-10.4,10.1-15.4c4.5-5.7,11.7-2.8,15.2-6.8
			c1.7-2,2.2-10.7,4.1-13.8c3.6-5.9,8.9-10.7,12.8-16.6c-3.5-1.6-8.5-3.4-12.2-4.3C167.9,70.3,162.8,77.8,160.4,81.1z M101.4,155.8
			c-1.4,6.8,0.4,20.9,2.1,27.5c4.5,17.5,11.7,35.2,18.5,51.9c4.4,10.5,9.9,23.5,15.3,33.6c-1.8,0.3-4.6-0.5-6.6,0.1
			c-10.5,2.7-16.4,11.5-26.7,15.3c-21.7,8-47.5-1.2-67.3-9.4c4.8-20.4,10.3-40,19.2-59.1c2.9-6.3,5.7-10.8,8.9-16.8l-0.1-0.3
			c-0.8,0.6-2,2.4-2.6,3.4c-15.4,24.4-27.2,52.8-31.4,81.4c-13.3-7.7-19.8-13.5-28.3-26.1c1.5-3.7,6.3-11.7,8.5-15.3
			c15.5-25.8,33.6-49.8,54-71.8c5.6-6.1,11.3-12.6,17.5-18.1C88.7,154.6,94.7,155.5,101.4,155.8z"/>
		<path class="st0" d="M62.3,388.5c-0.1-1.9-1.6-5.2-2.3-7.3l0.1-0.1c1.6,3,2.1,4.1,3.1,7.3c4-5.8,2.1-10.6,0.8-17.7
			c-2.3,3.5-5,5.8-7.8,8c-4.3,3.4-4.3,11.5-5.5,16.6c-0.7,2.7-1.4,5.4-1.9,8.2l0.5,0.5c3-1.3,5.2-11.2,8.7-11.8
			c0.9,0.7,1.5,2.9,1.5,4.1c0.3,10.6-1.7,14.6,9.9,18c0.6,1,1,2.1,1.5,3.1c0.2-3.7-6.8-14.5-7.9-18.8
			C61.9,394.6,62.7,392.6,62.3,388.5z"/>
		<path class="st0" d="M52.3,29.6c2.8,1.5,5.9,2.1,9.1,1.5c1.2,12.9,4.5,21.1,17.3,25.8h0.5c5.1,0.3,4.8-2.3,7.6-2.4
			c-0.8,2.7-5.1,3.3-7.5,3.3c-2.7,9.4-4.1,15.2-7.7,24.5c0.5-0.2,1-0.5,1.6-0.7c8.5-2.9,14.7-0.2,22.4,3.4c-1.9-2.3-3.8-4.2-5.2-7
			c-2.2-4.3-0.7-9-1-13.5c0-0.5-2.1-4.8-2.4-5.6c0.6,0.6,2.1,3.4,2.7,4.3c2.6,4.2,6.1,7.6,10.1,10.1c3.4,2.1,6.1,2.1,7.1-1.6
			c0.3-1.2,2.6-1.6,3.7-2c0.6-0.9,0.5-0.6,0.1-2c0.7-1.2,2,0,3.3-1.3c0.2-1.3-0.1-1.4-0.6-2.9c2.6-0.9,4.1-1.5,6.5-2.7
			c-0.5-0.3-0.9-0.7-1.4-1c-2.1-1.7-4.4-4.2-4.7-7.1c-0.3-3.1,4.4-5.4,6.5-7.3c1.6-1.5,2.9-2.9,4.3-4.5c-0.5,8-3.3,11.4-7.3,18
			c10.1-5,15-12.7,16-23.7c2.7,6.3,3.3,9.2,0,15.4c0.5-0.3,0.9-0.7,1.4-1.2c5.5-4.8,9.2-14.6,3.4-20.5c-4.2-4.3-11-4.9-16.7-5
			C114.7,14.8,103,8.9,92.1,7.8c-3-0.3-9.2-0.3-11.9,1.4c0.8,4.3-2,8.2-4.7,11.3c2.3-4.4,3.7-6.5,4.1-11.5c-0.9-3.4-2.8-5.6-5.8-7.5
			c-4.3-2.4-9.4-3.1-14.2-2C45.1,3.3,39.7,23,52.3,29.6z"/>
	</g>
</g>
</svg>
